<?xml version="1.0" standalone="no"?>
<!DOCTYPE svg PUBLIC "-//W3C//DTD SVG 20010904//EN"
 "http://www.w3.org/TR/2001/REC-SVG-20010904/DTD/svg10.dtd">
<svg version="1.0" xmlns="http://www.w3.org/2000/svg"
 width="500.000000pt" height="500.000000pt" viewBox="0 0 500.000000 500.000000"
 preserveAspectRatio="xMidYMid meet">
<metadata>
Created by potrace 1.14, written by Peter Selinger 2001-2017
</metadata>
<g transform="translate(0.000000,500.000000) scale(0.100000,-0.100000)"
fill="#000000" stroke="none">
<path d="M0 2500 l0 -2500 2500 0 2500 0 0 2500 0 2500 -584 0 c-575 0 -584 0
-589 -20 -7 -26 -37 -26 -44 0 -5 19 -14 20 -183 20 -163 0 -178 -1 -176 -17
1 -13 -6 -18 -24 -18 -18 0 -25 5 -24 18 2 16 -85 17 -1687 17 l-1689 0 0
-2500z m2363 2473 c11 -11 -43 -41 -64 -36 -10 3 -19 14 -19 24 0 15 7 19 38
19 21 0 42 -3 45 -7z m1827 -3 c0 -5 -2 -10 -4 -10 -3 0 -8 5 -11 10 -3 6 -1
10 4 10 6 0 11 -4 11 -10z m-3663 -32 c-3 -7 -5 -2 -5 12 0 14 2 19 5 13 2 -7
2 -19 0 -25z m-297 8 c0 -18 -17 -29 -30 -21 -8 5 -7 11 1 21 15 18 29 18 29
0z m4007 -1 c8 -22 -6 -33 -17 -15 -13 20 -12 30 0 30 6 0 13 -7 17 -15z
m-1203 -21 c18 -7 12 -24 -8 -24 -7 0 -21 7 -32 15 -19 14 -19 14 3 15 12 0
28 -3 37 -6z m-1724 -61 c0 -5 -12 -16 -26 -27 -19 -13 -29 -15 -37 -7 -13 13
-2 27 28 34 32 7 35 7 35 0z m3310 -13 c0 -5 -2 -10 -4 -10 -3 0 -8 5 -11 10
-3 6 -1 10 4 10 6 0 11 -4 11 -10z m-2943 -26 c-15 -8 -32 -12 -37 -9 -18 11
1 25 33 25 l32 -1 -28 -15z m2988 -4 c3 -5 1 -10 -4 -10 -6 0 -11 5 -11 10 0
6 2 10 4 10 3 0 8 -4 11 -10z m-3777 -22 c-3 -25 -17 -32 -37 -19 -19 12 -6
41 19 41 16 0 21 -5 18 -22z m-801 -25 c-3 -10 -5 -4 -5 12 0 17 2 24 5 18 2
-7 2 -21 0 -30z m2607 28 c3 -5 -1 -14 -9 -21 -13 -11 -20 -10 -40 0 -14 7
-25 17 -25 22 0 11 67 10 74 -1z m-654 -41 c0 -15 -38 -32 -45 -20 -3 5 -3 15
0 20 8 13 45 13 45 0z m-1570 -58 c0 -5 -9 -17 -20 -27 -16 -14 -20 -15 -20
-4 0 16 19 39 32 39 4 0 8 -4 8 -8z m3190 -7 c0 -8 -7 -15 -15 -15 -8 0 -15 7
-15 15 0 8 7 15 15 15 8 0 15 -7 15 -15z m1127 -37 c-3 -7 -5 -2 -5 12 0 14 2
19 5 13 2 -7 2 -19 0 -25z m-1492 12 c3 -5 -3 -10 -15 -10 -12 0 -18 5 -15 10
3 6 10 10 15 10 5 0 12 -4 15 -10z m745 -5 c0 -9 -6 -12 -15 -9 -8 4 -15 10
-15 15 0 5 7 9 15 9 8 0 15 -7 15 -15z m-1473 -43 c12 -7 41 -12 65 -12 91 0
321 -58 428 -108 134 -63 334 -193 393 -257 74 -78 175 -272 200 -382 9 -37
23 -101 32 -141 14 -64 32 -248 18 -197 -6 24 -23 44 -23 28 0 -13 -48 -33
-75 -31 -15 1 -20 9 -20 27 0 24 -3 25 -40 22 -22 -1 -48 -7 -57 -12 -9 -5
-28 -9 -41 -9 -14 0 -36 -6 -49 -13 -20 -10 -23 -17 -17 -34 4 -11 12 -24 18
-28 18 -10 12 -25 -6 -18 -14 5 -12 0 7 -24 27 -35 47 -41 56 -18 4 8 10 12
16 9 5 -3 17 1 26 9 9 8 41 22 71 32 l55 18 28 -32 c42 -47 37 -66 -27 -102
-57 -32 -76 -50 -58 -56 6 -2 36 -19 67 -38 l56 -34 0 84 c0 51 4 87 11 91 8
5 10 -18 6 -82 -4 -49 -6 -99 -7 -112 0 -13 -5 -22 -11 -20 -7 2 -24 -9 -40
-25 -34 -34 -43 -32 -146 21 l-73 37 -39 -42 c-21 -24 -42 -43 -47 -43 -13 0
-54 43 -54 57 0 8 -6 16 -14 19 -8 3 -12 12 -9 20 3 8 0 14 -6 14 -6 0 -11 7
-11 15 0 8 5 15 10 15 6 0 10 -4 10 -10 0 -5 5 -10 11 -10 5 0 9 10 7 22 -2
13 3 23 10 24 22 3 23 4 12 24 -15 28 -26 25 -39 -10 -12 -36 -34 -39 -56 -7
-12 15 -19 18 -22 9 -3 -7 -14 -22 -26 -33 -17 -15 -18 -19 -5 -19 9 0 19 -7
22 -16 3 -8 10 -12 16 -9 15 9 12 25 -5 25 -17 0 -20 16 -5 25 17 10 45 -24
31 -38 -17 -17 -14 -40 4 -33 13 4 13 2 5 -14 -14 -25 -13 -30 6 -30 9 0 14
-6 11 -12 -5 -17 -38 -11 -52 9 -10 14 -13 13 -28 -1 -9 -9 -20 -16 -24 -16
-4 1 -9 -4 -12 -11 -2 -8 2 -10 14 -5 13 5 16 2 11 -11 -4 -9 -10 -38 -13 -63
-3 -25 -10 -48 -16 -51 -11 -8 -1 -29 14 -29 5 0 9 7 9 15 0 17 25 20 35 5 3
-5 -1 -10 -9 -10 -9 0 -16 -5 -16 -11 0 -7 -10 -9 -24 -7 -17 4 -23 1 -19 -9
3 -7 2 -21 -2 -30 -4 -10 -10 -38 -12 -62 -3 -30 -12 -50 -31 -68 -18 -17 -21
-23 -9 -19 18 6 21 -2 11 -28 -3 -8 -12 -12 -20 -9 -8 3 -14 -1 -14 -10 0 -8
4 -17 10 -19 18 -6 9 -131 -11 -144 -5 -3 -8 28 -8 68 2 94 2 93 -17 78 -8 -8
-30 -15 -47 -17 -18 -1 -43 -5 -57 -9 l-25 -5 22 20 c12 12 26 21 30 20 26 -4
43 3 44 19 0 10 3 12 6 5 2 -7 13 -13 24 -13 23 0 43 60 24 75 -7 6 -9 18 -4
30 11 29 11 47 -1 40 -13 -8 -13 1 0 26 6 10 17 19 24 19 12 0 12 -8 0 -52 -7
-29 -12 -54 -9 -56 9 -9 30 15 32 38 4 50 12 106 18 138 5 19 3 32 -3 32 -5 0
-13 -16 -16 -35 -4 -19 -12 -37 -18 -41 -8 -5 -9 0 -4 17 12 38 20 239 10 249
-5 5 -9 -26 -8 -73 1 -109 -20 -195 -70 -291 -50 -98 -117 -172 -201 -225 -62
-39 -194 -91 -231 -91 -13 0 -15 -3 -7 -11 8 -8 17 -8 31 0 25 13 72 15 72 2
0 -5 -5 -11 -11 -13 -6 -2 -8 -14 -4 -31 5 -19 13 -27 29 -27 19 1 19 2 4 11
-10 5 -18 17 -18 24 0 18 5 18 31 4 14 -7 24 -7 33 0 7 6 15 8 18 5 3 -3 9 -1
13 5 3 7 -2 11 -14 11 -11 0 -25 9 -31 20 -8 15 -6 21 9 30 30 15 41 12 51
-15 5 -14 16 -25 24 -25 24 0 46 12 46 25 0 17 -35 47 -45 38 -4 -5 -5 -3 -1
4 4 7 14 9 23 6 10 -4 14 -2 11 7 -4 12 24 50 37 50 11 0 4 -39 -7 -42 -16 -6
-18 -48 -1 -48 7 0 13 -4 13 -10 0 -5 -4 -10 -10 -10 -5 0 -7 -7 -4 -15 5 -11
-1 -15 -25 -15 -17 0 -31 -4 -31 -10 0 -5 5 -10 12 -10 6 0 20 -7 30 -17 10
-9 18 -11 18 -5 0 6 7 9 15 6 8 -4 15 -1 15 5 0 6 -8 11 -17 12 -12 1 -10 3 6
8 33 9 42 35 10 27 -13 -3 -18 -3 -11 0 6 3 12 11 12 18 0 8 13 13 33 14 28 1
30 -1 15 -12 -12 -9 -14 -16 -7 -23 7 -7 5 -14 -6 -23 -8 -7 -15 -20 -15 -30
0 -10 -7 -20 -15 -24 -25 -9 -18 -51 10 -64 21 -10 27 -9 32 4 4 11 13 14 30
9 21 -5 24 -3 19 13 -7 22 17 47 34 37 7 -4 10 0 8 11 -2 13 3 19 15 18 9 -1
17 4 17 12 0 8 -5 14 -11 14 -5 0 -8 4 -4 10 3 5 15 6 27 1 12 -4 35 -3 51 3
23 8 31 8 34 -1 3 -7 9 -13 15 -13 6 0 8 7 4 15 -6 17 21 34 56 36 15 1 17 3
7 6 -9 2 -44 -2 -78 -10 -34 -8 -64 -10 -67 -6 -3 5 6 9 20 9 14 0 27 4 30 9
3 4 22 11 42 14 36 6 74 31 74 49 0 5 12 21 28 36 l28 27 39 -22 c51 -27 53
-27 57 0 2 12 9 21 17 19 8 -2 18 3 22 10 5 7 9 9 8 3 0 -5 -13 -25 -28 -43
-25 -29 -32 -32 -49 -23 -28 15 -29 15 -36 -20 -4 -22 -10 -30 -21 -25 -8 3
-15 1 -15 -4 0 -5 9 -12 21 -15 11 -4 18 -9 15 -13 -3 -3 1 -17 11 -31 15 -23
15 -24 0 -13 -13 11 -20 10 -46 -9 -17 -13 -31 -28 -31 -35 0 -12 -46 -30 -65
-25 -5 1 -1 -7 9 -18 19 -21 19 -21 -7 -21 -15 0 -27 -4 -27 -9 0 -5 -13 -14
-29 -20 -15 -7 -38 -26 -50 -42 -12 -16 -26 -27 -31 -24 -10 6 -90 -71 -90
-87 0 -7 -14 -26 -31 -44 -27 -28 -35 -45 -38 -78 -1 -5 -7 -3 -15 3 -7 6 -21
9 -30 5 -18 -7 -22 -24 -6 -24 6 0 10 -5 10 -11 0 -6 -9 -8 -21 -4 -15 5 -22
2 -26 -14 -3 -11 -15 -21 -27 -23 -13 -2 -22 -11 -24 -26 -4 -23 -16 -29 -27
-12 -10 16 -26 0 -20 -19 3 -10 -1 -24 -10 -31 -10 -8 -14 -22 -11 -35 4 -14
-1 -25 -15 -33 -25 -16 -45 -6 -28 14 6 8 9 17 6 20 -9 9 -27 -5 -27 -22 0 -8
-7 -14 -15 -14 -27 0 -11 -43 31 -84 21 -21 21 -23 -3 -65 -2 -2 -9 2 -18 9
-12 10 -15 10 -15 0 0 -7 8 -19 18 -26 10 -9 13 -17 7 -21 -5 -5 -10 -14 -10
-20 0 -22 -19 -17 -32 8 -13 24 -13 24 -13 -8 0 -18 5 -33 10 -33 14 0 13 -37
-2 -63 -6 -12 -12 -30 -13 -40 -1 -9 -10 -24 -21 -32 -19 -15 -19 -15 0 -8 13
4 17 3 12 -5 -4 -7 -14 -12 -22 -12 -17 0 -19 -16 -3 -26 8 -4 8 -9 -1 -18 -8
-8 -13 -7 -20 4 -9 13 -11 13 -20 0 -8 -12 -10 -10 -10 10 0 14 -5 32 -10 40
-8 11 -9 8 -4 -11 7 -35 -13 -48 -22 -14 -3 14 -10 25 -15 25 -8 0 -14 -30
-10 -52 0 -5 -3 -8 -7 -8 -15 0 -32 24 -32 44 0 19 0 19 -22 0 l-21 -19 16 25
c16 24 15 27 -3 40 -11 8 -20 22 -20 32 0 25 -13 22 -25 -4 -6 -14 -20 -24
-35 -25 -14 -1 -18 0 -10 3 16 7 40 33 40 45 0 4 -13 2 -30 -4 -16 -6 -30 -17
-30 -24 0 -7 -4 -13 -10 -13 -12 0 -12 2 0 34 7 19 17 26 35 26 14 0 25 5 25
11 0 7 -10 9 -25 6 -16 -3 -24 0 -22 7 2 6 11 11 20 11 24 0 31 13 17 31 -11
12 -11 20 -2 34 9 15 8 28 -4 62 -9 24 -20 71 -25 105 -11 75 -26 111 -51 118
-10 4 -18 15 -18 26 0 11 -10 23 -24 28 -13 5 -26 19 -29 30 -3 14 -10 18 -26
14 -12 -3 -21 -1 -21 6 0 6 5 11 11 11 8 0 8 5 -1 15 -14 17 -45 21 -35 5 3
-5 2 -10 -4 -10 -5 0 -12 13 -16 29 -3 15 -19 41 -35 56 -17 16 -30 37 -30 47
0 9 -12 25 -26 35 -14 9 -30 27 -35 40 -9 25 -29 32 -29 10 0 -7 -25 11 -56
40 -37 35 -64 53 -81 53 -20 0 -23 3 -14 13 8 11 5 17 -16 28 -15 8 -41 29
-57 47 -20 23 -32 30 -39 23 -21 -21 -25 -11 -10 20 8 17 21 33 29 36 20 7 17
34 -3 31 -10 -2 -19 4 -21 15 -5 23 13 22 43 -5 19 -16 22 -24 14 -35 -9 -10
-8 -13 4 -13 30 0 28 20 -6 56 l-33 36 -37 -16 c-34 -14 -44 -30 -37 -61 1 -5
-7 -1 -18 10 -14 15 -16 21 -5 23 19 5 16 19 -10 55 -12 18 -24 41 -25 52 -2
11 -10 25 -18 31 -26 20 -15 25 16 7 32 -19 37 -32 18 -51 -10 -10 -8 -14 10
-18 13 -4 22 -14 22 -26 0 -12 5 -17 13 -14 6 3 20 9 30 12 12 4 16 13 12 25
-4 11 -2 19 4 19 6 0 11 -8 11 -17 0 -15 2 -16 15 -2 12 12 13 20 3 46 -7 18
-19 34 -28 37 -11 3 -10 4 3 5 11 1 21 -7 24 -19 6 -23 33 -27 33 -5 0 8 5 15
10 15 6 0 1 -19 -11 -42 l-21 -41 23 -18 c13 -10 27 -19 31 -19 4 0 5 -7 2
-15 -4 -10 0 -15 11 -15 9 0 13 -5 10 -10 -8 -12 43 -33 67 -27 9 3 19 -2 22
-10 5 -11 17 -14 46 -11 23 2 41 -1 44 -7 4 -11 -9 -10 -154 9 l-45 5 42 -15
c29 -11 40 -20 36 -30 -3 -8 -1 -14 5 -14 6 0 12 5 14 11 2 7 21 8 54 4 43 -6
51 -10 47 -25 -3 -13 0 -18 14 -17 12 2 17 -4 15 -17 -2 -11 1 -15 8 -11 17
11 41 -15 34 -38 -4 -14 -2 -18 7 -15 21 7 24 58 5 58 -9 0 -16 5 -16 10 0 14
7 13 34 -5 21 -14 24 -14 36 0 11 13 11 20 0 40 -7 14 -10 28 -7 31 4 4 -1 13
-11 21 -16 13 -15 14 6 10 14 -3 26 1 32 11 8 14 9 12 10 -10 0 -14 6 -29 13
-32 6 -3 1 -3 -12 0 -17 4 -22 2 -19 -7 3 -8 17 -15 31 -17 24 -3 26 -7 21
-29 -5 -18 -4 -24 5 -19 6 4 9 11 6 16 -3 5 6 12 21 16 25 6 26 8 10 20 -10 7
-24 10 -31 8 -19 -8 -26 36 -9 61 14 21 14 24 -3 33 -10 6 -15 14 -11 17 4 4
20 -4 36 -17 28 -23 29 -25 11 -36 -23 -15 -25 -38 -3 -46 30 -11 44 -6 54 20
6 16 14 22 22 18 9 -6 9 -9 0 -12 -20 -6 -14 -22 9 -22 11 0 17 5 14 10 -3 6
1 10 9 10 25 0 19 -19 -9 -32 -14 -6 -25 -16 -25 -21 0 -6 3 -7 6 -4 4 3 16 2
26 -4 14 -8 23 -8 31 0 6 6 15 11 19 11 14 0 8 -22 -9 -37 -17 -12 -16 -13 7
-11 18 2 25 9 26 26 1 12 -3 25 -7 28 -15 9 -10 26 6 20 8 -3 15 -2 15 3 0 5
-21 16 -47 25 -173 62 -274 150 -354 311 -22 44 -45 109 -53 145 -13 63 -13
169 -1 217 3 13 1 23 -4 23 -5 0 -12 -16 -15 -35 -4 -20 -11 -33 -17 -30 -5 4
-9 -1 -9 -10 0 -9 5 -13 10 -10 14 9 12 -41 -2 -65 -10 -16 -10 -24 0 -40 6
-11 12 -35 12 -54 0 -18 7 -39 15 -46 8 -7 15 -18 15 -25 0 -8 11 -36 25 -63
27 -55 29 -62 16 -62 -4 0 -16 21 -26 47 -10 27 -25 55 -34 63 -13 13 -14 13
-7 -5 5 -11 14 -38 20 -60 6 -22 16 -44 23 -50 6 -5 13 -23 15 -40 2 -23 9
-31 27 -33 13 -2 21 0 18 5 -3 5 -2 15 4 23 7 12 9 10 9 -7 0 -14 10 -27 27
-35 41 -20 42 -39 2 -28 -18 5 -35 7 -38 5 -2 -3 -13 2 -23 12 -21 19 -20 22
-18 -77 2 -82 -1 -85 -23 -24 -14 43 -12 104 4 104 5 0 9 5 9 10 0 6 -6 10
-14 10 -8 0 -17 7 -20 16 -10 25 -7 36 7 28 6 -5 4 3 -6 16 -22 32 -23 34 -38
106 -10 48 -17 62 -38 72 -32 15 -51 15 -51 0 0 -9 -4 -8 -10 2 -14 21 -12 30
4 24 8 -3 24 -1 35 6 18 9 21 8 21 -10 0 -24 13 -26 30 -5 10 12 9 15 -4 15
-12 0 -17 7 -15 23 1 12 -1 34 -6 50 -4 17 -3 33 5 42 6 8 8 20 4 26 -5 9 -10
7 -15 -7 -7 -17 -8 -17 -8 4 -1 15 -7 22 -20 22 -11 0 -21 -4 -23 -9 -5 -15
-40 -17 -45 -3 -3 6 3 12 12 12 12 0 15 6 10 20 -4 11 -2 20 4 20 6 0 11 7 11
15 0 8 7 15 15 15 8 0 15 5 15 10 0 6 7 10 16 10 12 0 9 7 -11 28 l-27 29 -22
-22 c-31 -33 -48 -64 -40 -77 5 -8 1 -9 -11 -4 -12 4 -26 -1 -41 -15 -41 -38
-157 -46 -287 -17 -57 12 -68 29 -57 87 12 67 22 72 110 53 118 -24 166 1 98
51 -22 17 -47 22 -120 25 -51 2 -99 9 -106 14 -10 9 -11 -13 -8 -108 4 -86 3
-105 -4 -69 -4 28 -9 105 -9 171 l-1 122 35 -5 c19 -2 42 0 51 5 9 5 28 6 43
1 14 -4 53 -12 86 -18 33 -6 70 -13 83 -17 12 -3 22 -2 22 3 0 14 -109 53
-129 46 -9 -4 -13 -3 -9 2 4 4 -15 20 -42 34 -28 15 -64 39 -80 53 l-31 27
-10 -26 c-6 -18 -6 -28 0 -33 12 -7 3 -50 -10 -50 -15 0 4 154 38 305 22 98
130 310 196 382 57 62 209 167 354 245 110 58 258 102 413 120 68 8 92 14 67
16 -20 2 -35 7 -32 12 8 13 226 6 252 -8z m396 -39 c-7 -2 -19 -2 -25 0 -7 3
-2 5 12 5 14 0 19 -2 13 -5z m1467 -13 c0 -5 -2 -10 -4 -10 -3 0 -8 5 -11 10
-3 6 -1 10 4 10 6 0 11 -4 11 -10z m-4087 -20 c3 -11 1 -20 -4 -20 -5 0 -9 9
-9 20 0 11 2 20 4 20 2 0 6 -9 9 -20z m1104 -5 c-18 -17 -37 -20 -37 -5 0 10
41 31 49 24 2 -2 -4 -10 -12 -19z m-363 -4 c9 -14 -4 -41 -19 -41 -18 0 -26
25 -12 39 13 13 24 14 31 2z m706 -31 c-19 -13 -30 -13 -30 0 0 6 10 10 23 10
18 0 19 -2 7 -10z m-1090 -70 c-20 -12 -33 -1 -19 16 9 11 15 12 23 4 8 -8 7
-13 -4 -20z m3836 -28 c-12 -11 -18 7 -10 30 l8 23 4 -23 c2 -13 1 -26 -2 -30z
m-1039 -28 c-9 -9 -28 6 -21 18 4 6 10 6 17 -1 6 -6 8 -13 4 -17z m343 6 c0
-5 -4 -10 -10 -10 -5 0 -10 5 -10 10 0 6 5 10 10 10 6 0 10 -4 10 -10z m-3243
-82 c-3 -8 -6 -5 -6 6 -1 11 2 17 5 13 3 -3 4 -12 1 -19z m4324 -81 c-13 -13
-15 11 -4 40 7 16 8 15 11 -6 2 -13 -1 -28 -7 -34z m-3631 28 c0 -8 -7 -15
-15 -15 -8 0 -15 7 -15 15 0 8 7 15 15 15 8 0 15 -7 15 -15z m-354 -62 c-10
-10 -19 5 -10 18 6 11 8 11 12 0 2 -7 1 -15 -2 -18z m-707 -60 c1 -7 -3 -13
-9 -13 -5 0 -10 15 -9 33 0 27 2 29 9 12 5 -11 9 -26 9 -32z m4402 -106 c-13
-13 -15 1 -4 30 7 17 8 17 11 -1 2 -10 -1 -23 -7 -29z m-4111 -95 c0 -7 -4
-10 -10 -7 -5 3 -10 16 -10 28 0 18 2 19 10 7 5 -8 10 -21 10 -28z m3822 -94
c-7 -7 -12 -8 -12 -2 0 6 3 14 7 17 3 4 9 5 12 2 2 -3 -1 -11 -7 -17z m643 -8
c-4 -12 -9 -19 -12 -17 -3 3 -2 15 2 27 4 12 9 19 12 17 3 -3 2 -15 -2 -27z
m-4795 -93 c0 -5 -4 -5 -10 -2 -5 3 -10 14 -10 23 0 15 2 15 10 2 5 -8 10 -19
10 -23z m620 2 c0 -6 -4 -7 -10 -4 -5 3 -10 11 -10 16 0 6 5 7 10 4 6 -3 10
-11 10 -16z m-680 -9 c0 -5 -4 -10 -10 -10 -5 0 -10 5 -10 10 0 6 5 10 10 10
6 0 10 -4 10 -10z m4531 -67 c-12 -20 -14 -14 -5 12 4 9 9 14 11 11 3 -2 0
-13 -6 -23z m329 7 c0 -5 -2 -10 -4 -10 -3 0 -8 5 -11 10 -3 6 -1 10 4 10 6 0
11 -4 11 -10z m-4535 -80 c3 -5 1 -10 -4 -10 -6 0 -11 5 -11 10 0 6 2 10 4 10
3 0 8 -4 11 -10z m55 -11 c0 -6 -4 -7 -10 -4 -5 3 -10 11 -10 16 0 6 5 7 10 4
6 -3 10 -11 10 -16z m4150 -38 c0 -6 -4 -13 -10 -16 -5 -3 -10 1 -10 9 0 9 5
16 10 16 6 0 10 -4 10 -9z m-3815 -51 c3 -5 1 -10 -4 -10 -6 0 -11 5 -11 10 0
6 2 10 4 10 3 0 8 -4 11 -10z m2855 -67 c-10 -16 -11 -15 -6 7 3 14 7 36 7 50
2 19 3 18 6 -7 2 -18 -1 -41 -7 -50z m310 -17 c0 -3 -4 -8 -10 -11 -5 -3 -10
-1 -10 4 0 6 5 11 10 11 6 0 10 -2 10 -4z m47 -48 c-3 -8 -6 -5 -6 6 -1 11 2
17 5 13 3 -3 4 -12 1 -19z m-3897 -9 c0 -11 -4 -17 -10 -14 -5 3 -10 13 -10
21 0 8 5 14 10 14 6 0 10 -9 10 -21z m1005 -29 c3 -5 1 -10 -4 -10 -6 0 -11 5
-11 10 0 6 2 10 4 10 3 0 8 -4 11 -10z m3507 -32 c-9 -9 -12 -7 -12 12 0 19 3
21 12 12 9 -9 9 -15 0 -24z m265 -10 c-3 -8 -6 -5 -6 6 -1 11 2 17 5 13 3 -3
4 -12 1 -19z m-3152 1 c7 -10 -21 -38 -37 -39 -12 0 -9 19 5 35 15 17 24 18
32 4z m-1275 -30 c0 -11 -4 -17 -10 -14 -5 3 -10 13 -10 21 0 8 5 14 10 14 6
0 10 -9 10 -21z m-267 -4 c4 -8 2 -17 -3 -20 -6 -4 -10 -4 -10 -1 0 2 -3 11
-6 20 -3 9 -2 16 4 16 5 0 12 -7 15 -15z m4085 -47 c-6 -18 -28 -21 -28 -4 0
9 7 16 16 16 9 0 14 -5 12 -12z m259 -10 c-3 -8 -6 -5 -6 6 -1 11 2 17 5 13 3
-3 4 -12 1 -19z m-3987 -37 c0 -6 -4 -13 -10 -16 -5 -3 -10 1 -10 9 0 9 5 16
10 16 6 0 10 -4 10 -9z m260 -7 c0 -8 -4 -12 -10 -9 -5 3 -10 10 -10 16 0 5 5
9 10 9 6 0 10 -7 10 -16z m2412 -26 c-13 -26 -17 -29 -20 -15 -3 14 19 44 35
47 1 0 -6 -15 -15 -32z m-1602 -10 c0 -6 -6 -5 -15 2 -8 7 -15 14 -15 16 0 2
7 1 15 -2 8 -4 15 -11 15 -16z m50 1 c0 -6 -4 -7 -10 -4 -5 3 -10 11 -10 16 0
6 5 7 10 4 6 -3 10 -11 10 -16z m64 0 c-3 -5 0 -17 8 -26 11 -14 11 -16 -2
-11 -8 2 -16 17 -18 32 -2 19 0 26 7 21 6 -3 9 -11 5 -16z m1416 -14 c0 -14
-6 -25 -14 -25 -9 0 -12 8 -8 25 2 14 8 25 13 25 5 0 9 -11 9 -25z m780 7 c0
-13 -12 -22 -22 -16 -10 6 -1 24 13 24 5 0 9 -4 9 -8z m260 4 c0 -3 -4 -8 -10
-11 -5 -3 -10 -1 -10 4 0 6 5 11 10 11 6 0 10 -2 10 -4z m-3290 -52 c0 -8 -4
-12 -10 -9 -5 3 -10 10 -10 16 0 5 5 9 10 9 6 0 10 -7 10 -16z m2990 1 c0 -8
-7 -15 -15 -15 -16 0 -20 12 -8 23 11 12 23 8 23 -8z m-657 -8 c4 3 7 2 7 -4
0 -18 -12 -22 -26 -8 -18 18 -18 31 -1 16 8 -6 17 -8 20 -4z m1657 -12 c0 -16
-6 -25 -15 -25 -18 0 -18 5 -5 31 14 26 20 24 20 -6z m-3245 4 c11 -17 -1 -21
-15 -4 -8 9 -8 15 -2 15 6 0 14 -5 17 -11z m-1435 -40 c0 -10 -4 -19 -10 -19
-5 0 -10 12 -10 26 0 14 4 23 10 19 6 -3 10 -15 10 -26z m990 1 c0 -5 -4 -10
-10 -10 -5 0 -10 5 -10 10 0 6 5 10 10 10 6 0 10 -4 10 -10z m1963 -5 c-3 -9
-8 -14 -10 -11 -3 3 -2 9 2 15 9 16 15 13 8 -4z m-1895 -36 c-3 -20 -5 -19 -9
9 -3 20 -2 29 4 23 5 -5 7 -19 5 -32z m3254 9 c-15 -15 -24 -6 -16 16 5 12 10
14 17 7 8 -8 8 -14 -1 -23z m-3947 -18 c-3 -5 -10 -10 -16 -10 -5 0 -9 5 -9
10 0 6 7 10 16 10 8 0 12 -4 9 -10z m2522 -32 c-3 -7 -5 -2 -5 12 0 14 2 19 5
13 2 -7 2 -19 0 -25z m1698 22 c-3 -5 -10 -10 -16 -10 -5 0 -9 5 -9 10 0 6 7
10 16 10 8 0 12 -4 9 -10z m-639 -27 c-10 -10 -19 5 -10 18 6 11 8 11 12 0 2
-7 1 -15 -2 -18z m-3848 -2 c3 -8 -1 -12 -9 -9 -7 2 -15 10 -17 17 -3 8 1 12
9 9 7 -2 15 -10 17 -17z m3009 13 c-3 -3 -12 -4 -19 -1 -8 3 -5 6 6 6 11 1 17
-2 13 -5z m-147 -14 c0 -5 -5 -10 -11 -10 -5 0 -7 5 -4 10 3 6 8 10 11 10 2 0
4 -4 4 -10z m31 -23 l-23 -22 17 28 c10 15 20 25 23 22 3 -3 -5 -16 -17 -28z
m-1521 3 c12 -12 15 -20 7 -20 -7 0 -18 9 -25 20 -7 11 -10 20 -7 20 3 0 14
-9 25 -20z m2745 11 c3 -5 1 -12 -5 -16 -5 -3 -10 1 -10 9 0 18 6 21 15 7z
m-315 -11 c0 -5 -4 -10 -10 -10 -5 0 -10 5 -10 10 0 6 5 10 10 10 6 0 10 -4
10 -10z m-3440 -20 c0 -5 -2 -10 -4 -10 -3 0 -8 5 -11 10 -3 6 -1 10 4 10 6 0
11 -4 11 -10z m833 -20 c3 -11 4 -20 3 -20 -1 0 -9 9 -19 20 -13 15 -14 20 -3
20 7 0 16 -9 19 -20z m1885 0 c-7 -11 -16 -20 -19 -20 -4 0 -5 9 -2 20 3 11
12 20 19 20 12 0 12 -4 2 -20z m-437 -23 c-6 -6 -11 -18 -11 -27 0 -9 -9 -25
-20 -35 -11 -10 -20 -13 -20 -7 0 6 6 15 14 19 8 4 15 12 14 16 0 20 25 71 29
59 3 -8 0 -19 -6 -25z m220 10 c-10 -9 -11 -8 -5 6 3 10 9 15 12 12 3 -3 0
-11 -7 -18z m-1595 -22 c10 -8 14 -15 7 -15 -19 0 -43 11 -43 21 0 13 14 11
36 -6z m234 11 c0 -3 -4 -8 -10 -11 -5 -3 -10 -1 -10 4 0 6 5 11 10 11 6 0 10
-2 10 -4z m1270 -6 c0 -5 -2 -10 -4 -10 -3 0 -8 5 -11 10 -3 6 -1 10 4 10 6 0
11 -4 11 -10z m250 1 c0 -9 -24 -21 -43 -21 -6 0 -2 7 9 15 22 17 34 19 34 6z
m-1610 -11 c0 -5 -4 -10 -10 -10 -5 0 -10 5 -10 10 0 6 5 10 10 10 6 0 10 -4
10 -10z m1450 0 c0 -5 -4 -10 -10 -10 -5 0 -10 5 -10 10 0 6 5 10 10 10 6 0
10 -4 10 -10z m-1646 -15 c-6 -16 -24 -21 -24 -7 0 11 11 22 21 22 5 0 6 -7 3
-15z m1844 -3 c6 -18 -15 -14 -22 4 -4 10 -1 14 6 12 6 -2 14 -10 16 -16z
m-1538 -45 c0 -5 -4 -5 -10 -2 -5 3 -10 14 -10 23 0 15 2 15 10 2 5 -8 10 -19
10 -23z m1221 -10 c-13 -13 -15 1 -4 30 7 17 8 17 11 -1 2 -10 -1 -23 -7 -29z
m233 29 c-21 -15 -30 -14 -19 3 3 6 14 11 23 11 13 0 13 -2 -4 -14z m-54 -6
c0 -5 -2 -10 -4 -10 -3 0 -8 5 -11 10 -3 6 -1 10 4 10 6 0 11 -4 11 -10z m173
-16 c-14 -14 -28 -23 -31 -20 -7 8 30 45 45 45 7 1 1 -11 -14 -25z m-1853 5
c0 6 5 11 10 11 6 0 10 -7 10 -16 0 -20 -41 -15 -48 6 -5 13 -3 13 11 1 11 -9
17 -10 17 -2z m1791 1 c6 0 8 -4 4 -9 -8 -15 -45 -9 -45 7 0 9 6 12 16 8 9 -3
20 -6 25 -6z m-83 -28 c6 -18 -15 -14 -22 4 -4 10 -1 14 6 12 6 -2 14 -10 16
-16z m-1487 -9 c13 -16 12 -17 -3 -4 -17 13 -22 21 -14 21 2 0 10 -8 17 -17z
m44 7 c3 -5 -1 -10 -10 -10 -9 0 -13 5 -10 10 3 6 8 10 10 10 2 0 7 -4 10 -10z
m1305 6 c0 -2 -8 -10 -17 -17 -16 -13 -17 -12 -4 4 13 16 21 21 21 13z m-3140
-27 c0 -11 -4 -17 -10 -14 -13 8 -13 35 0 35 6 0 10 -9 10 -21z m3316 -6 c-10
-10 -19 5 -10 18 6 11 8 11 12 0 2 -7 1 -15 -2 -18z m-2941 -11 c-8 -8 -25 10
-19 20 4 6 9 5 15 -3 4 -7 6 -15 4 -17z m1195 18 c0 -5 -5 -10 -11 -10 -5 0
-7 5 -4 10 3 6 8 10 11 10 2 0 4 -4 4 -10z m1790 0 c0 -5 -4 -10 -10 -10 -5 0
-10 5 -10 10 0 6 5 10 10 10 6 0 10 -4 10 -10z m1404 -5 c-6 -16 -24 -21 -24
-7 0 11 11 22 21 22 5 0 6 -7 3 -15z m-4019 -5 c3 -5 1 -10 -4 -10 -6 0 -11 5
-11 10 0 6 2 10 4 10 3 0 8 -4 11 -10z m730 -1 c11 -17 -1 -21 -15 -4 -8 9 -8
15 -2 15 6 0 14 -5 17 -11z m2915 1 c0 -5 -5 -10 -11 -10 -5 0 -7 5 -4 10 3 6
8 10 11 10 2 0 4 -4 4 -10z m-2436 -17 c18 -50 49 -88 44 -54 -1 13 3 26 10
28 8 3 12 -5 12 -24 0 -43 -33 -41 -53 3 -9 19 -21 34 -27 34 -5 0 -10 7 -10
15 0 21 16 19 24 -2z m1026 2 c0 -8 -4 -15 -10 -15 -5 0 -16 -12 -24 -27 l-15
-28 -1 28 c0 17 5 27 15 27 8 0 15 7 15 15 0 8 5 15 10 15 6 0 10 -7 10 -15z
m470 11 c0 -3 -4 -8 -10 -11 -5 -3 -10 -1 -10 4 0 6 5 11 10 11 6 0 10 -2 10
-4z m-1710 -30 c0 -11 -19 -15 -25 -6 -3 5 1 10 9 10 9 0 16 -2 16 -4z m1460
0 c0 -11 -19 -15 -25 -6 -3 5 1 10 9 10 9 0 16 -2 16 -4z m-285 -28 c-12 -39
-25 -44 -25 -10 0 22 5 32 16 32 11 0 14 -6 9 -22z m-2805 -9 c0 -5 -4 -9 -10
-9 -5 0 -10 7 -10 16 0 8 5 12 10 9 6 -3 10 -10 10 -16z m1837 -5 c-9 -9 -28
6 -21 18 4 6 10 6 17 -1 6 -6 8 -13 4 -17z m2713 17 c0 -6 -4 -13 -10 -16 -5
-3 -10 1 -10 9 0 9 5 16 10 16 6 0 10 -4 10 -9z m-1670 -5 c0 -3 -4 -8 -10
-11 -5 -3 -10 -1 -10 4 0 6 5 11 10 11 6 0 10 -2 10 -4z m-1390 -36 c0 -5 -7
-10 -16 -10 -8 0 -12 5 -9 10 3 6 10 10 16 10 5 0 9 -4 9 -10z m1330 0 c0 -5
-4 -10 -10 -10 -5 0 -10 5 -10 10 0 6 5 10 10 10 6 0 10 -4 10 -10z m405 0 c3
-5 -1 -10 -9 -10 -9 0 -16 5 -16 10 0 6 4 10 9 10 6 0 13 -4 16 -10z m-1385
-16 c0 -3 -7 -12 -15 -20 -16 -17 -18 -14 -9 10 6 15 24 23 24 10z m1035 -15
c4 -11 4 -23 1 -26 -3 -4 -6 1 -6 10 0 10 -4 17 -10 17 -5 0 -10 5 -10 10 0
18 19 10 25 -11z m-991 -5 c9 -24 7 -28 -7 -15 -8 6 -17 8 -20 4 -4 -3 -7 -2
-7 4 0 25 25 30 34 7z m953 -1 c2 -6 -4 -13 -13 -17 -21 -8 -26 -3 -18 18 7
18 25 17 31 -1z m82 -4 c-16 -10 -23 -4 -14 10 3 6 11 8 17 5 6 -4 5 -9 -3
-15z m-83 -41 c-9 -5 -22 -7 -29 -4 -7 2 -4 5 6 5 9 1 17 6 17 12 0 5 5 7 11
3 8 -5 6 -10 -5 -16z m-996 -16 c0 -15 -2 -15 -10 -2 -13 20 -13 33 0 25 6 -3
10 -14 10 -23z m1000 -22 c0 -5 -4 -10 -10 -10 -5 0 -10 5 -10 10 0 6 5 10 10
10 6 0 10 -4 10 -10z m-30 -27 c0 -15 -2 -15 -24 -7 -22 9 -20 20 4 20 11 0
20 -6 20 -13z m-2350 -7 c0 -3 -4 -8 -10 -11 -5 -3 -10 -1 -10 4 0 6 5 11 10
11 6 0 10 -2 10 -4z m2320 -22 c0 -2 -7 -4 -15 -4 -8 0 -15 4 -15 10 0 5 7 7
15 4 8 -4 15 -8 15 -10z m1685 7 c3 -5 1 -12 -5 -16 -5 -3 -10 1 -10 9 0 18 6
21 15 7z m-4385 -31 c0 -5 -2 -10 -4 -10 -3 0 -8 5 -11 10 -3 6 -1 10 4 10 6
0 11 -4 11 -10z m1463 -16 c9 -10 -4 -34 -19 -34 -16 0 -16 2 -8 24 6 17 16
20 27 10z m1635 -17 c2 -10 -3 -17 -12 -17 -10 0 -16 9 -16 21 0 24 23 21 28
-4z m1662 14 c0 -6 -4 -13 -10 -16 -5 -3 -10 1 -10 9 0 9 5 16 10 16 6 0 10
-4 10 -9z m-4645 -31 c3 -5 1 -10 -4 -10 -6 0 -11 5 -11 10 0 6 2 10 4 10 3 0
8 -4 11 -10z m1157 -25 c3 -14 1 -25 -3 -25 -5 0 -9 5 -9 10 0 15 -33 12 -56
-4 -13 -10 -23 -11 -31 -4 -7 6 -45 9 -87 6 -56 -2 -80 -8 -97 -23 -15 -14
-21 -16 -17 -5 11 33 67 53 176 60 59 4 110 8 113 8 4 1 9 -9 11 -23z m145 -7
c-3 -7 -5 -2 -5 12 0 14 2 19 5 13 2 -7 2 -19 0 -25z m1700 -5 c-3 -10 -5 -4
-5 12 0 17 2 24 5 18 2 -7 2 -21 0 -30z m339 21 c28 -3 65 -14 83 -25 41 -25
34 -36 -8 -15 -34 18 -142 22 -172 6 -11 -6 -19 -7 -19 -1 0 15 -51 23 -66 10
-15 -12 -18 -2 -9 23 6 14 69 15 191 2z m-1956 -24 c0 -5 -4 -10 -10 -10 -5 0
-10 5 -10 10 0 6 5 10 10 10 6 0 10 -4 10 -10z m1550 0 c0 -5 -4 -10 -10 -10
-5 0 -10 5 -10 10 0 6 5 10 10 10 6 0 10 -4 10 -10z m-1650 -34 c0 -7 24 -65
54 -129 80 -171 122 -196 322 -197 l122 0 51 -46 c55 -49 74 -93 24 -54 -79
60 -96 66 -245 80 -71 7 -110 16 -148 35 -68 34 -127 89 -135 125 -7 31 -22
47 -33 36 -3 -4 -1 -16 6 -26 7 -11 12 -29 12 -39 0 -11 4 -23 10 -26 5 -3 8
-20 7 -38 -2 -19 3 -36 12 -43 8 -6 10 -14 5 -17 -16 -10 -35 9 -38 37 -2 15
-11 33 -21 40 -15 10 -18 33 -22 144 -3 88 0 132 7 132 5 0 10 -6 10 -14z
m160 -12 c0 -8 -4 -12 -10 -9 -5 3 -10 13 -10 21 0 8 5 12 10 9 6 -3 10 -13
10 -21z m1426 0 c-4 -9 -9 -15 -11 -12 -3 3 -3 13 1 22 4 9 9 15 11 12 3 -3 3
-13 -1 -22z m168 -89 c-5 -118 -12 -154 -35 -178 -11 -13 -15 -23 -9 -25 17
-6 -9 -32 -31 -32 -11 0 -19 5 -19 10 0 6 6 10 14 10 11 0 13 9 9 35 -4 23 -2
35 6 35 6 0 11 9 11 21 0 11 4 28 9 37 5 9 12 40 15 67 l6 50 -13 -40 c-35
-105 -78 -159 -157 -200 -41 -21 -66 -26 -190 -39 -121 -13 -134 -18 -209 -74
-51 -38 -36 -3 20 49 l51 47 141 4 c156 4 177 11 235 71 18 19 43 58 56 88 83
198 96 207 90 64z m-1704 82 c0 -8 9 -22 20 -32 11 -10 20 -24 20 -30 0 -7 11
-16 25 -19 14 -4 25 -11 25 -16 0 -18 -30 -11 -48 11 -9 12 -23 27 -29 34 -19
20 -35 65 -23 65 6 0 10 -6 10 -13z m76 -14 c-10 -10 -19 5 -10 18 6 11 8 11
12 0 2 -7 1 -15 -2 -18z m1494 6 c0 -5 -4 -9 -10 -9 -5 0 -10 7 -10 16 0 8 5
12 10 9 6 -3 10 -10 10 -16z m-1410 -24 c0 -8 -4 -15 -9 -15 -13 0 -22 16 -14
24 11 11 23 6 23 -9z m1331 -8 c-13 -13 -26 -3 -16 12 3 6 11 8 17 5 6 -4 6
-10 -1 -17z m142 8 c-3 -9 -8 -14 -10 -11 -3 3 -2 9 2 15 9 16 15 13 8 -4z
m-23 -21 c0 -8 -5 -12 -10 -9 -6 4 -8 11 -5 16 9 14 15 11 15 -7z m-1430 -14
c0 -5 -5 -10 -11 -10 -5 0 -7 5 -4 10 3 6 8 10 11 10 2 0 4 -4 4 -10z m1290
-11 c0 -6 -4 -7 -10 -4 -5 3 -10 11 -10 16 0 6 5 7 10 4 6 -3 10 -11 10 -16z
m120 -9 c-20 -13 -33 -13 -25 0 3 6 14 10 23 10 15 0 15 -2 2 -10z m-2810 -35
c0 -8 -2 -15 -4 -15 -2 0 -6 7 -10 15 -3 8 -1 15 4 15 6 0 10 -7 10 -15z
m1353 1 c4 -10 0 -12 -14 -9 -10 3 -16 9 -13 14 8 13 21 11 27 -5z m1401 5 c6
-9 -16 -21 -40 -21 -12 0 -13 3 -2 15 15 16 34 19 42 6z m-1319 -44 c21 -22 9
-21 -35 3 -33 17 -33 19 -9 16 15 -1 34 -10 44 -19z m1218 -7 c-34 -21 -40
-18 -17 8 9 11 23 18 31 15 10 -4 6 -11 -14 -23z m1637 0 c0 -5 -4 -10 -10
-10 -5 0 -10 5 -10 10 0 6 5 10 10 10 6 0 10 -4 10 -10z m-3286 -19 c3 -5 21
-12 39 -15 18 -3 39 -15 47 -27 8 -11 27 -27 41 -34 31 -17 64 -102 48 -122
-6 -7 -8 -16 -5 -21 3 -6 -4 -12 -17 -16 -34 -9 -37 -8 -37 18 0 13 -18 43
-41 70 -27 30 -42 58 -43 76 -1 22 -4 26 -14 17 -10 -7 -17 -6 -30 7 -16 17
-16 18 8 11 l25 -7 -24 26 c-14 14 -19 26 -13 26 6 0 13 -4 16 -9z m2071 -17
c-17 -13 -18 -16 -5 -24 12 -8 11 -10 -7 -10 -17 0 -23 -6 -23 -24 0 -13 -17
-43 -40 -69 -25 -28 -40 -55 -40 -71 0 -14 -4 -26 -9 -26 -21 0 -41 13 -41 26
0 8 -7 17 -15 20 -12 5 -13 10 -1 32 7 15 16 39 20 55 3 15 12 27 18 27 7 0
25 12 40 27 28 26 108 64 118 55 3 -2 -4 -10 -15 -18z m-3440 -14 c3 -5 1 -10
-4 -10 -6 0 -11 5 -11 10 0 6 2 10 4 10 3 0 8 -4 11 -10z m2055 0 c0 -5 -2
-10 -4 -10 -3 0 -8 5 -11 10 -3 6 -1 10 4 10 6 0 11 -4 11 -10z m710 6 c0 -3
-4 -8 -10 -11 -5 -3 -10 -1 -10 4 0 6 5 11 10 11 6 0 10 -2 10 -4z m2140 -90
c0 -3 -4 -8 -10 -11 -5 -3 -10 -1 -10 4 0 6 5 11 10 11 6 0 10 -2 10 -4z
m-1716 -67 c0 -17 -8 -39 -16 -49 -12 -13 -13 -21 -5 -29 6 -6 8 -12 4 -12 -4
-1 -10 -2 -14 -3 -5 0 -18 -11 -31 -24 -13 -13 -29 -21 -35 -19 -7 2 -18 -3
-25 -12 -10 -12 -15 -13 -18 -3 -8 18 -34 15 -34 -5 0 -13 -2 -15 -8 -5 -7 9
-15 10 -35 3 -15 -6 -27 -8 -27 -5 0 4 -7 1 -15 -6 -8 -7 -29 -10 -52 -6 -21
3 -42 5 -46 6 -5 0 -5 5 -1 11 4 7 10 7 16 1 13 -13 58 -3 52 13 -5 13 22 27
61 31 25 3 82 19 115 32 34 13 101 68 93 75 -4 5 14 37 21 37 0 0 1 -14 0 -31z
m-1528 -40 c30 -27 93 -59 114 -59 12 0 20 -7 20 -16 0 -12 3 -14 13 -6 12 10
70 8 88 -4 6 -3 8 -12 5 -20 -3 -8 1 -14 9 -14 9 0 12 6 9 15 -4 8 -1 15 6 15
6 0 10 -10 8 -22 -2 -17 -9 -23 -25 -22 -26 1 -31 -11 -8 -20 8 -3 15 -13 15
-23 0 -16 -1 -16 -12 0 -7 9 -24 21 -38 26 -18 7 -20 10 -7 10 11 1 15 6 11
12 -3 6 -19 9 -35 5 -16 -3 -29 -2 -29 3 0 13 -32 23 -42 13 -9 -9 -48 7 -101
42 -19 13 -24 22 -18 30 7 8 3 18 -14 30 -21 16 -23 22 -13 39 11 21 11 21 18
2 4 -11 16 -27 26 -36z m953 -1 c0 -7 -4 -22 -9 -33 -7 -17 -9 -15 -9 13 -1
17 4 32 9 32 6 0 10 -6 9 -12z m581 -78 c0 -5 -5 -10 -11 -10 -5 0 -7 5 -4 10
3 6 8 10 11 10 2 0 4 -4 4 -10z m-310 -20 c0 -5 -4 -10 -10 -10 -5 0 -10 5
-10 10 0 6 5 10 10 10 6 0 10 -4 10 -10z m1860 -30 c0 -5 -4 -10 -10 -10 -5 0
-10 5 -10 10 0 6 5 10 10 10 6 0 10 -4 10 -10z m-1790 -14 c0 -2 -13 -9 -30
-15 -16 -5 -30 -6 -30 -1 0 5 8 11 18 13 24 7 42 8 42 3z m150 -10 c0 -8 -5
-18 -11 -22 -14 -8 -33 11 -25 25 10 16 36 13 36 -3z m-1380 -6 c0 -5 -4 -10
-10 -10 -5 0 -10 5 -10 10 0 6 5 10 10 10 6 0 10 -4 10 -10z m264 -14 c-3 -11
-10 -25 -15 -31 -13 -14 -42 6 -44 31 -1 15 6 19 32 20 30 1 33 -1 27 -20z
m866 9 c16 -19 -3 -45 -31 -45 -14 0 -19 7 -19 30 0 23 5 30 19 30 10 0 24 -7
31 -15z m-795 -24 c3 -5 1 -12 -5 -16 -5 -3 -10 1 -10 9 0 18 6 21 15 7z
m-207 -24 c4 -20 -25 -34 -40 -19 -15 15 -1 44 19 40 10 -2 19 -11 21 -21z
m1137 13 c8 -13 -13 -40 -30 -40 -15 0 -28 27 -19 41 7 12 41 11 49 -1z m-365
-26 c0 -8 -4 -12 -10 -9 -5 3 -10 10 -10 16 0 5 5 9 10 9 6 0 10 -7 10 -16z
m-4 -27 c6 2 14 -6 18 -19 8 -32 8 -38 -4 -38 -5 0 -10 6 -10 13 0 7 -10 17
-22 22 -12 6 -24 16 -26 23 -3 11 0 12 14 4 11 -5 24 -7 30 -5z m-36 -49 c0
-13 -9 -9 -30 12 -12 12 -18 26 -14 32 7 10 43 -27 44 -44z m-20 -44 c0 -8 -5
-12 -10 -9 -6 4 -8 11 -5 16 9 14 15 11 15 -7z m-310 2 c0 -3 -4 -8 -10 -11
-5 -3 -10 -1 -10 4 0 6 5 11 10 11 6 0 10 -2 10 -4z m266 -43 c-10 -10 -19 5
-10 18 6 11 8 11 12 0 2 -7 1 -15 -2 -18z m-2276 -63 c0 -5 -2 -10 -4 -10 -3
0 -8 5 -11 10 -3 6 -1 10 4 10 6 0 11 -4 11 -10z m2010 -4 c0 -11 -19 -15 -25
-6 -3 5 1 10 9 10 9 0 16 -2 16 -4z m314 -18 c-6 -20 -5 -21 9 -10 13 11 19
10 36 -7 13 -13 16 -21 9 -21 -7 0 7 -14 32 -30 25 -16 41 -30 36 -30 -5 0 -2
-8 5 -17 13 -15 11 -16 -11 -9 -61 18 -157 18 -210 1 -55 -18 -96 -17 -184 8
-46 13 -93 11 -176 -8 -19 -4 -21 -3 -10 4 8 6 15 16 15 23 0 7 11 18 23 24
32 16 50 34 34 34 -7 0 -3 9 8 20 14 14 27 18 50 14 17 -4 36 -1 44 5 12 10
18 7 30 -17 8 -15 22 -35 32 -43 16 -13 16 -12 0 18 l-16 33 57 -5 c33 -2 62
0 70 7 10 8 13 6 13 -10 0 -12 -4 -24 -10 -27 -5 -3 -10 -11 -10 -17 0 -16 29
12 47 45 11 22 18 26 26 18 16 -16 37 -14 37 4 0 8 5 15 11 15 6 0 8 -9 3 -22z
m2196 -62 c0 -3 -4 -8 -10 -11 -5 -3 -10 -1 -10 4 0 6 5 11 10 11 6 0 10 -2
10 -4z m-2629 -154 c12 -17 16 -32 11 -32 -12 0 -52 48 -52 62 0 18 21 3 41
-30z m178 27 c27 -10 43 -29 24 -29 -18 0 -188 32 -192 36 -10 9 138 3 168 -7z
m326 1 c-11 -5 -35 -9 -53 -9 -30 -1 -33 -4 -27 -23 5 -20 5 -21 -5 -5 -10 15
-19 17 -56 11 -24 -3 -44 -3 -44 0 0 16 70 34 134 34 48 0 65 -2 51 -8z m75 3
c0 -10 -52 -63 -62 -63 -4 0 2 16 14 35 20 31 48 47 48 28z m-304 -46 c4 -4
-5 -7 -19 -7 -15 0 -27 4 -27 10 0 11 35 8 46 -3z m-356 -17 c0 -5 -4 -10 -10
-10 -5 0 -10 5 -10 10 0 6 5 10 10 10 6 0 10 -4 10 -10z m710 0 c0 -5 -4 -10
-10 -10 -5 0 -10 5 -10 10 0 6 5 10 10 10 6 0 10 -4 10 -10z m150 -24 c0 -3
-4 -8 -10 -11 -5 -3 -10 -1 -10 4 0 6 5 11 10 11 6 0 10 -2 10 -4z m-840 -16
c0 -5 -4 -10 -10 -10 -5 0 -10 5 -10 10 0 6 5 10 10 10 6 0 10 -4 10 -10z
m670 0 c0 -5 -5 -10 -11 -10 -5 0 -7 5 -4 10 3 6 8 10 11 10 2 0 4 -4 4 -10z
m120 -20 c0 -5 -8 -10 -17 -10 -15 0 -16 2 -3 10 19 12 20 12 20 0z m-314 -26
c-30 -21 -45 -16 -16 6 14 10 27 16 30 13 3 -2 -4 -11 -14 -19z m-713 -2 c-2
-10 -14 -22 -26 -27 -24 -11 -31 -48 -16 -77 6 -10 5 -19 -1 -23 -5 -3 -10 -1
-10 5 0 6 -7 18 -16 27 -22 22 -39 2 -39 -47 0 -45 -5 -45 -14 1 -6 28 -8 30
-21 17 -8 -8 -27 -22 -42 -32 -15 -10 -25 -23 -22 -31 3 -7 -4 -18 -15 -25
-23 -12 -28 -1 -8 19 10 11 8 11 -10 2 -15 -7 -20 -17 -16 -27 5 -13 2 -15
-15 -9 -13 4 -22 2 -22 -4 0 -6 6 -11 13 -12 7 0 6 -3 -3 -6 -8 -4 -21 -13
-28 -22 -12 -14 -13 -14 -8 2 7 21 -12 22 -35 1 -21 -19 -12 -46 22 -64 18
-10 19 -9 13 14 -3 15 -2 26 4 26 11 0 25 -74 14 -78 -4 -1 -7 -19 -5 -40 l3
-37 -10 33 c-12 38 -24 43 -18 7 3 -14 2 -25 -2 -25 -14 0 -81 90 -75 101 5 6
12 4 20 -8 7 -10 16 -16 18 -13 3 3 -1 13 -8 24 -16 21 -43 16 -51 -11 -3 -10
-12 -34 -19 -53 -12 -31 -14 -33 -21 -15 -4 11 -12 23 -18 27 -13 9 29 50 125
124 35 27 66 51 69 55 3 3 23 16 45 29 50 29 193 140 219 169 23 26 36 27 29
3z m443 -10 c-4 -3 -14 2 -24 12 -16 18 -16 18 6 6 13 -6 21 -14 18 -18z m757
-28 c34 -31 105 -84 157 -120 148 -99 230 -170 230 -199 0 -14 4 -25 8 -25 5
0 8 -19 7 -42 -3 -70 -4 -73 -16 -61 -6 6 -18 9 -25 6 -8 -3 -20 0 -28 6 -10
8 -16 8 -26 -4 -17 -21 -33 -19 -22 3 5 9 7 22 5 29 -3 7 3 9 16 6 13 -3 21
-1 21 7 0 7 -7 10 -15 6 -8 -3 -15 0 -15 7 0 7 -7 3 -15 -7 -18 -24 -34 -12
-18 13 16 25 4 35 -14 13 -13 -16 -14 -15 -10 5 3 12 -1 24 -8 27 -11 4 -11
12 -3 40 13 41 32 50 22 11 -5 -20 -3 -24 8 -20 9 4 21 17 28 30 12 22 10 26
-11 44 -16 13 -26 16 -29 8 -7 -17 -49 -17 -43 0 3 7 10 10 15 7 6 -4 8 -1 6
7 -3 8 -11 13 -18 11 -7 -2 -16 2 -20 8 -4 6 -17 12 -28 13 -12 1 -22 7 -22
14 0 10 5 11 19 3 11 -5 23 -10 28 -10 4 1 -5 8 -22 17 -16 9 -47 29 -67 45
-33 26 -38 27 -38 11 0 -13 -8 -18 -27 -20 -26 -1 -26 0 -9 12 12 9 16 20 11
34 -8 26 -17 26 -35 1 -21 -30 -27 -25 -26 22 1 35 -3 45 -21 53 -20 8 -33 45
-17 45 3 0 34 -25 67 -56z m-133 -15 c-7 -11 -14 -19 -16 -16 -7 7 7 37 17 37
6 0 5 -9 -1 -21z m-1077 -14 c-5 -13 -23 -22 -23 -11 0 15 14 35 21 31 4 -3 6
-12 2 -20z m1166 -7 c0 -28 -2 -30 -9 -13 -12 28 -12 45 0 45 6 0 10 -15 9
-32z m-1019 -2 c14 -18 14 -19 -8 -7 -12 7 -20 17 -16 22 3 6 7 9 8 7 1 -2 8
-12 16 -22z m874 -1 c-4 -8 -11 -15 -16 -15 -6 0 -5 6 2 15 7 8 14 15 16 15 2
0 1 -7 -2 -15z m-540 -17 c46 -2 59 -26 49 -93 -4 -36 -10 -45 -25 -45 -11 0
-27 7 -36 16 -14 15 -17 15 -29 -2 -12 -16 -13 -15 -14 12 -1 16 -3 45 -4 64
-5 43 4 78 14 61 4 -6 24 -12 45 -13z m245 -30 c-2 -72 -12 -119 -21 -96 -5
11 -13 15 -23 12 -9 -4 -14 -13 -11 -21 5 -11 2 -11 -17 -2 -12 7 -24 10 -27
8 -8 -7 -16 64 -10 96 5 27 9 30 48 33 23 2 42 7 42 13 0 5 5 9 10 9 6 0 9
-23 9 -52z m-526 -15 c-3 -7 0 -13 6 -13 6 0 8 -7 5 -15 -4 -10 -13 -13 -26
-9 -17 5 -18 3 -9 -15 6 -11 19 -26 29 -33 17 -13 46 -58 38 -58 -2 0 -11 -3
-19 -6 -10 -4 -14 2 -13 18 3 28 -12 50 -27 41 -21 -13 -67 -10 -67 4 0 10 6
12 21 8 18 -6 20 -4 14 17 -4 12 -13 29 -19 37 -8 11 -8 13 1 7 7 -4 20 -3 28
2 13 7 12 10 -10 20 -14 6 -25 16 -25 22 0 7 6 8 19 0 29 -15 41 -12 34 8 -5
14 -3 14 10 -3 8 -10 13 -25 10 -32z m-86 22 c9 -25 -4 -29 -17 -6 -7 15 -7
21 0 21 6 0 13 -7 17 -15z m886 4 c20 8 27 7 27 -1 0 -9 3 -9 12 0 23 23 40
13 18 -10 -17 -19 -22 -20 -30 -9 -7 12 -12 12 -34 -3 -34 -21 -33 -29 2 -24
26 4 27 2 18 -19 -6 -13 -14 -23 -18 -23 -5 0 -8 -5 -8 -11 0 -7 10 -9 28 -5
27 6 27 6 6 -11 -11 -10 -25 -30 -31 -44 -10 -24 -15 -26 -45 -20 -32 7 -45
30 -20 39 6 2 12 -3 12 -12 0 -9 4 -16 9 -16 12 0 41 28 41 40 0 12 -29 20
-35 10 -4 -6 -14 -10 -23 -10 -13 1 -12 4 6 13 12 7 30 23 39 37 16 22 15 23
-3 18 -11 -3 -25 1 -32 9 -10 10 -10 13 3 13 8 0 15 5 15 10 0 6 -5 10 -10 10
-6 0 -5 6 2 14 7 8 16 10 19 5 3 -6 16 -6 32 0z m-999 -14 c3 -8 1 -15 -4 -15
-6 0 -10 7 -10 15 0 8 2 15 4 15 2 0 6 -7 10 -15z m1166 0 c0 -8 -4 -15 -10
-15 -5 0 -10 7 -10 15 0 8 5 15 10 15 6 0 10 -7 10 -15z m-1240 -15 c0 -5 -2
-10 -4 -10 -3 0 -8 5 -11 10 -3 6 -1 10 4 10 6 0 11 -4 11 -10z m1281 -20 c5
0 9 -5 9 -10 0 -7 -6 -7 -20 0 -13 7 -17 16 -12 28 6 16 7 16 10 0 2 -10 8
-18 13 -18z m-1241 7 c0 -7 -9 -13 -20 -14 -16 -1 -17 1 -7 12 15 18 27 19 27
2z m147 -13 c-3 -3 -12 -4 -19 -1 -8 3 -5 6 6 6 11 1 17 -2 13 -5z m933 -14
c-6 -11 -15 -20 -20 -20 -6 0 -5 9 2 20 7 11 16 20 21 20 4 0 3 -9 -3 -20z
m210 10 c0 -5 -5 -10 -11 -10 -5 0 -7 5 -4 10 3 6 8 10 11 10 2 0 4 -4 4 -10z
m75 -9 c3 -5 1 -12 -5 -16 -5 -3 -10 1 -10 9 0 18 6 21 15 7z m-1205 -11 c0
-5 -2 -10 -4 -10 -3 0 -8 5 -11 10 -3 6 -1 10 4 10 6 0 11 -4 11 -10z m1120
-25 c0 -8 -4 -15 -10 -15 -5 0 -10 6 -10 13 0 8 -4 7 -10 -3 -8 -13 -10 -12
-10 3 0 10 8 17 20 17 11 0 20 -7 20 -15z m-1410 -17 c0 -6 -3 -8 -7 -5 -3 4
-12 2 -20 -4 -10 -9 -13 -8 -13 5 0 9 8 16 20 16 11 0 20 -5 20 -12z m1518 -8
c4 -12 2 -13 -9 -3 -9 9 -16 10 -26 2 -7 -7 -13 -7 -13 -2 0 27 40 29 48 3z
m-1218 -30 c0 -14 -5 -18 -17 -13 -12 5 -8 -5 12 -33 25 -32 26 -36 6 -19 -13
11 -29 32 -37 46 -13 25 -12 27 6 22 11 -3 20 0 20 6 0 6 2 11 5 11 3 0 5 -9
5 -20z m41 1 c11 -10 16 -22 11 -25 -9 -6 -20 4 -36 32 -11 18 2 15 25 -7z
m869 -4 c9 -3 3 -6 -12 -6 -20 -1 -28 4 -28 15 0 12 4 14 13 7 6 -6 19 -13 27
-16z m-1265 -25 c1 -17 -1 -19 -12 -11 -16 14 -17 42 -1 37 6 -2 12 -14 13
-26z m125 18 c0 -5 -2 -10 -4 -10 -3 0 -8 5 -11 10 -3 6 -1 10 4 10 6 0 11 -4
11 -10z m1350 0 c0 -5 -4 -10 -9 -10 -6 0 -13 5 -16 10 -3 6 1 10 9 10 9 0 16
-4 16 -10z m135 0 c3 -5 -1 -10 -9 -10 -9 0 -16 5 -16 10 0 6 4 10 9 10 6 0
13 -4 16 -10z m-1121 -9 c3 -5 -1 -14 -8 -20 -12 -10 -13 -8 -9 8 6 23 9 25
17 12z m626 -7 c0 -8 -4 -12 -10 -9 -5 3 -10 10 -10 16 0 5 5 9 10 9 6 0 10
-7 10 -16z m123 -33 c-9 -12 -21 -21 -25 -21 -4 0 2 11 14 25 12 14 23 23 25
21 3 -2 -4 -14 -14 -25z m-783 -44 c0 -3 -13 1 -30 9 -23 12 -27 18 -18 28 10
11 16 9 30 -10 10 -12 18 -24 18 -27z m-486 27 c3 -8 2 -12 -4 -9 -6 3 -10 10
-10 16 0 14 7 11 14 -7z m1206 -8 c-14 -6 -28 -15 -32 -20 -4 -6 -10 -8 -13
-4 -12 12 29 44 50 39 17 -4 17 -5 -5 -15z m680 -18 c0 -6 -7 -5 -15 2 -8 7
-15 17 -15 22 0 6 7 5 15 -2 8 -7 15 -17 15 -22z m-2026 -4 c9 -3 16 -12 16
-19 0 -7 5 -15 10 -17 6 -2 11 -14 12 -28 1 -14 6 -31 11 -37 13 -18 -3 -16
-24 3 -13 12 -22 13 -38 5 -25 -14 -31 -14 -31 -1 0 6 7 10 16 10 17 0 16 28
-1 73 -7 18 2 21 29 11z m633 -19 c16 4 34 0 50 -10 31 -21 24 -30 -10 -14
-20 9 -30 9 -40 0 -12 -9 -18 -6 -31 13 -9 14 -16 29 -16 33 0 4 5 0 11 -10 8
-14 18 -17 36 -12z m780 19 c-3 -3 -12 -4 -19 -1 -8 3 -5 6 6 6 11 1 17 -2 13
-5z m-79 -24 c-13 -21 -38 -27 -38 -10 0 6 -9 6 -26 -1 -27 -10 -44 -5 -30 8
4 4 25 7 47 7 21 -1 39 2 39 7 0 5 5 9 10 9 6 0 5 -8 -2 -20z m-48 -24 c0 -3
-4 -8 -10 -11 -5 -3 -10 -1 -10 4 0 6 5 11 10 11 6 0 10 -2 10 -4z m-1340 -42
c0 -35 -15 -30 -18 7 -2 19 2 28 8 24 5 -3 10 -17 10 -31z m1410 6 c0 -17 -2
-19 -14 -8 -10 9 -11 15 -2 20 16 11 16 10 16 -12z m-760 6 c0 -2 -7 -9 -15
-16 -12 -10 -15 -10 -15 4 0 9 7 16 15 16 8 0 15 -2 15 -4z m80 -21 c10 -12 9
-18 -5 -31 -14 -14 -20 -15 -40 -4 -31 16 -21 34 13 25 22 -5 24 -4 13 9 -8 9
-9 16 -3 16 5 0 15 -7 22 -15z m596 0 c-6 -17 5 -20 20 -6 5 6 13 4 20 -3 9
-10 5 -15 -17 -23 -16 -6 -27 -7 -23 -2 3 5 -2 9 -10 9 -19 0 -21 26 -3 33 19
8 19 8 13 -8z m784 -5 c0 -5 -5 -10 -11 -10 -5 0 -7 5 -4 10 3 6 8 10 11 10 2
0 4 -4 4 -10z m208 -60 c37 -34 39 -40 12 -33 -11 3 -17 10 -13 16 4 6 -2 8
-15 5 -14 -4 -19 -2 -16 6 3 7 -13 25 -36 41 -22 15 -40 30 -40 32 0 9 76 -39
108 -67z m-2533 34 c-66 -57 -76 -64 -85 -64 -17 0 93 88 110 89 3 0 -8 -11
-25 -25z m995 16 c0 -5 -5 -10 -11 -10 -5 0 -7 5 -4 10 3 6 8 10 11 10 2 0 4
-4 4 -10z m-811 -38 c-5 -2 -9 -10 -9 -18 0 -8 -4 -14 -10 -14 -13 0 -13 13 2
45 11 24 13 25 19 8 3 -10 2 -19 -2 -21z m2124 -24 c-2 -5 -9 -8 -14 -8 -6 0
-7 5 -3 11 3 6 1 14 -5 18 -7 5 -9 15 -4 26 6 17 8 16 19 -10 7 -17 10 -33 7
-37z m-1423 22 c6 -11 15 -18 21 -15 5 4 9 1 9 -4 0 -18 -15 -12 -40 14 -13
14 -18 25 -12 25 6 0 16 -9 22 -20z m125 10 c4 -6 -9 -10 -32 -9 -34 1 -35 2
-13 9 35 11 38 11 45 0z m514 -6 c2 -2 -15 -4 -38 -4 -25 0 -40 4 -36 10 5 8
63 3 74 -6z m81 1 c-7 -9 -15 -13 -17 -11 -7 7 7 26 19 26 6 0 6 -6 -2 -15z
m-754 -23 c-4 -3 -14 2 -24 12 -16 18 -16 18 6 6 13 -6 21 -14 18 -18z m724
-2 c0 -5 -8 -10 -17 -10 -15 0 -16 2 -3 10 19 12 20 12 20 0z m-622 -28 c-21
-4 -23 -18 -6 -28 6 -4 14 -2 16 4 2 7 15 12 28 12 15 0 24 6 24 15 0 8 7 15
15 15 18 0 19 -9 1 -32 -7 -10 -25 -18 -40 -18 -28 0 -33 -9 -14 -28 16 -16 8
-20 -29 -15 -19 3 -33 11 -33 19 0 8 -4 14 -10 14 -5 0 -10 5 -10 12 0 6 11 1
25 -12 14 -13 28 -20 32 -17 3 4 -6 18 -21 32 -19 18 -22 25 -12 25 9 0 16 4
16 10 0 5 8 6 18 2 16 -6 16 -7 0 -10z m538 -12 c8 0 14 -4 14 -10 0 -5 -14
-10 -31 -10 -24 0 -30 4 -25 15 3 10 -1 15 -12 15 -14 0 -14 2 -3 9 9 6 19 4
28 -5 8 -8 21 -14 29 -14z m39 20 c-3 -5 -12 -10 -18 -10 -7 0 -6 4 3 10 19
12 23 12 15 0z m-1374 -17 c13 -16 12 -17 -3 -4 -17 13 -22 21 -14 21 2 0 10
-8 17 -17z m729 13 c0 -3 -4 -8 -10 -11 -5 -3 -10 -1 -10 4 0 6 5 11 10 11 6
0 10 -2 10 -4z m1600 0 c0 -3 -4 -8 -10 -11 -5 -3 -10 -1 -10 4 0 6 5 11 10
11 6 0 10 -2 10 -4z m-937 -18 c-12 -6 -27 -23 -34 -39 -6 -16 -18 -29 -25
-29 -8 0 -14 2 -14 5 0 13 67 75 80 74 9 0 7 -4 -7 -11z m10 -33 c-16 -22 -33
-32 -33 -20 0 5 42 45 47 45 2 0 -4 -11 -14 -25z m-653 -25 c0 -5 -4 -10 -10
-10 -5 0 -10 5 -10 10 0 6 5 10 10 10 6 0 10 -4 10 -10z m680 0 c0 -5 -7 -10
-15 -10 -8 0 -15 5 -15 10 0 6 7 10 15 10 8 0 15 -4 15 -10z m-643 -46 c-3 -3
-12 -4 -19 -1 -8 3 -5 6 6 6 11 1 17 -2 13 -5z m498 -4 c3 -5 1 -10 -4 -10 -6
0 -11 5 -11 10 0 6 2 10 4 10 3 0 8 -4 11 -10z m60 -40 c3 -5 1 -10 -4 -10 -6
0 -11 5 -11 10 0 6 2 10 4 10 3 0 8 -4 11 -10z m35 -49 c0 -5 -7 -12 -16 -15
-14 -5 -15 -4 -4 9 14 17 20 19 20 6z m-580 -11 c0 -5 -2 -10 -4 -10 -3 0 -8
5 -11 10 -3 6 -1 10 4 10 6 0 11 -4 11 -10z m57 -36 c-3 -3 -12 -4 -19 -1 -8
3 -5 6 6 6 11 1 17 -2 13 -5z"/>
<path d="M3536 4067 c3 -10 9 -15 12 -12 3 3 0 11 -7 18 -10 9 -11 8 -5 -6z"/>
<path d="M1499 4017 c-15 -12 -34 -34 -44 -49 -16 -25 -16 -28 -1 -28 9 0 16
6 16 13 1 15 30 50 54 64 10 6 15 13 10 16 -5 3 -21 -5 -35 -16z"/>
<path d="M1534 3990 c-26 -10 -42 -42 -16 -33 14 6 15 4 5 -8 -9 -11 -10 -25
-4 -47 7 -23 6 -32 -5 -36 -8 -3 -14 -10 -14 -16 0 -6 7 -5 20 2 11 7 20 18
20 25 0 7 7 10 15 7 16 -6 17 -3 17 46 0 77 0 76 -38 60z"/>
<path d="M3398 3994 c-3 -5 -3 -24 -1 -42 6 -35 26 -39 31 -6 3 22 -22 62 -30
48z"/>
<path d="M3554 3882 c-22 -14 -25 -49 -7 -68 17 -17 18 -17 21 0 2 10 10 15
18 12 8 -3 14 -1 14 4 0 6 -4 10 -9 10 -5 0 -13 11 -18 25 -5 14 -12 21 -19
17z"/>
<path d="M3510 3845 c0 -8 2 -15 4 -15 2 0 6 7 10 15 3 8 1 15 -4 15 -6 0 -10
-7 -10 -15z"/>
<path d="M1476 3805 c-24 -18 -18 -26 12 -18 12 3 22 12 22 19 0 18 -10 17
-34 -1z"/>
<path d="M3470 3801 c0 -3 14 -14 30 -23 17 -9 30 -22 30 -28 0 -15 -16 -12
-30 5 -7 8 -19 15 -26 15 -8 0 -14 5 -14 10 0 6 -11 10 -24 10 -19 0 -26 -7
-31 -32 -4 -18 -12 -36 -18 -40 -7 -4 -5 -11 4 -20 10 -9 35 -12 82 -10 64 4
67 5 61 25 -6 20 -6 20 10 4 22 -22 25 -21 19 4 -4 12 0 25 8 29 10 7 7 14
-15 31 -26 21 -86 35 -86 20z m10 -80 c13 -13 13 -14 -4 -8 -10 4 -25 2 -33
-4 -19 -16 -34 0 -27 28 5 19 9 20 27 10 12 -7 28 -18 37 -26z"/>
<path d="M3580 3792 c0 -5 9 -17 20 -27 20 -18 25 -11 14 19 -6 17 -34 23 -34
8z"/>
<path d="M1630 3766 c-6 -9 -10 -21 -8 -28 3 -8 9 -4 17 10 15 28 9 39 -9 18z"/>
<path d="M1456 3748 c-18 -20 -18 -22 -1 -34 16 -12 20 -10 32 12 7 15 13 30
13 35 0 16 -24 8 -44 -13z"/>
<path d="M1626 3694 c-10 -25 -7 -34 9 -34 9 0 15 9 15 25 0 28 -15 34 -24 9z"/>
<path d="M1690 3655 c-17 -10 -20 -14 -9 -15 9 0 22 7 29 15 15 18 12 18 -20
0z"/>
<path d="M2375 3542 c9 -10 75 -13 75 -4 0 5 -18 9 -40 9 -22 0 -38 -2 -35 -5z"/>
<path d="M2495 3540 c3 -5 8 -10 11 -10 2 0 4 5 4 10 0 6 -5 10 -11 10 -5 0
-7 -4 -4 -10z"/>
<path d="M2520 3540 c0 -12 27 -12 55 0 16 7 13 9 -17 9 -21 1 -38 -3 -38 -9z"/>
<path d="M1695 3510 c3 -5 11 -10 16 -10 6 0 7 5 4 10 -3 6 -11 10 -16 10 -6
0 -7 -4 -4 -10z"/>
<path d="M1615 3489 c-4 -6 3 -21 15 -34 18 -19 27 -22 47 -14 32 12 33 12 33
-10 0 -15 -5 -18 -22 -13 -21 5 -22 4 -9 -11 7 -9 20 -17 27 -17 17 0 18 -17
2 -22 -10 -4 -10 -10 0 -32 10 -23 15 -25 32 -16 19 10 19 13 5 40 -8 16 -15
42 -15 57 0 15 -3 38 -6 49 -5 20 -8 21 -34 8 -15 -8 -35 -11 -44 -8 -22 9
-10 23 14 17 11 -3 20 0 20 6 0 14 -57 14 -65 0z"/>
<path d="M3009 3473 c-13 -16 -12 -17 4 -4 16 13 21 21 13 21 -2 0 -10 -8 -17
-17z"/>
<path d="M3249 3489 c0 -2 -3 -25 -5 -51 -5 -49 0 -56 26 -37 11 8 12 12 3 16
-7 2 -13 16 -13 31 0 25 1 25 14 6 12 -15 17 -17 27 -6 11 10 10 12 -1 12 -7
0 -22 7 -32 17 -10 9 -18 14 -19 12z"/>
<path d="M1850 3459 c0 -5 5 -7 10 -4 6 3 10 8 10 11 0 2 -4 4 -10 4 -5 0 -10
-5 -10 -11z"/>
<path d="M3105 3460 c3 -5 8 -10 11 -10 2 0 4 5 4 10 0 6 -5 10 -11 10 -5 0
-7 -4 -4 -10z"/>
<path d="M1760 3450 c-8 -5 -12 -11 -9 -14 2 -3 11 -1 19 4 8 5 12 11 9 14 -2
3 -11 1 -19 -4z"/>
<path d="M3190 3451 c0 -5 7 -12 16 -15 14 -5 15 -4 4 9 -14 17 -20 19 -20 6z"/>
<path d="M1780 3411 c0 -6 4 -13 10 -16 6 -3 7 1 4 9 -7 18 -14 21 -14 7z"/>
<path d="M2318 3413 c6 -2 18 -2 25 0 6 3 1 5 -13 5 -14 0 -19 -2 -12 -5z"/>
<path d="M2608 3413 c6 -2 18 -2 25 0 6 3 1 5 -13 5 -14 0 -19 -2 -12 -5z"/>
<path d="M3170 3410 c0 -5 5 -10 10 -10 6 0 10 5 10 10 0 6 -4 10 -10 10 -5 0
-10 -4 -10 -10z"/>
<path d="M2678 3383 c-22 -26 -40 -63 -30 -63 4 0 18 18 31 40 24 43 24 51 -1
23z"/>
<path d="M3200 3389 c0 -5 5 -7 10 -4 6 3 10 8 10 11 0 2 -4 4 -10 4 -5 0 -10
-5 -10 -11z"/>
<path d="M2266 3367 c3 -10 9 -15 12 -12 3 3 0 11 -7 18 -10 9 -11 8 -5 -6z"/>
<path d="M3222 3356 c-9 -19 -8 -25 4 -30 8 -3 14 -1 14 4 0 5 6 7 14 4 23 -9
31 18 11 33 -26 18 -30 17 -43 -11z"/>
<path d="M3180 3359 c0 -5 5 -7 10 -4 6 3 10 8 10 11 0 2 -4 4 -10 4 -5 0 -10
-5 -10 -11z"/>
<path d="M1812 3338 c-17 -17 -15 -31 8 -46 22 -13 27 -3 8 16 -9 9 -9 15 0
24 9 9 13 7 18 -5 3 -9 10 -15 15 -12 13 9 -2 35 -20 35 -9 0 -22 -5 -29 -12z"/>
<path d="M3106 3341 c-4 -7 -5 -15 -2 -18 9 -9 19 4 14 18 -4 11 -6 11 -12 0z"/>
<path d="M3144 3332 c5 -13 3 -22 -3 -22 -6 0 -11 -7 -11 -15 0 -13 4 -14 20
-5 24 13 26 33 4 51 -15 12 -16 11 -10 -9z"/>
<path d="M2668 3283 c12 -2 32 -2 45 0 12 2 2 4 -23 4 -25 0 -35 -2 -22 -4z"/>
<path d="M2982 3226 c-23 -30 -42 -58 -42 -62 0 -10 32 24 54 59 10 15 21 25
25 23 4 -3 8 4 8 15 1 10 1 19 0 19 -1 0 -21 -24 -45 -54z"/>
<path d="M1960 3208 c42 -56 48 -73 28 -81 -7 -2 -10 -8 -5 -12 4 -5 13 0 21
10 12 17 9 25 -27 77 -23 32 -44 58 -49 58 -4 0 10 -24 32 -52z"/>
<path d="M2155 3250 c3 -5 8 -10 11 -10 2 0 4 5 4 10 0 6 -5 10 -11 10 -5 0
-7 -4 -4 -10z"/>
<path d="M3125 3230 c3 -5 8 -10 11 -10 2 0 4 5 4 10 0 6 -5 10 -11 10 -5 0
-7 -4 -4 -10z"/>
<path d="M2615 3220 c-19 -8 -19 -9 3 -9 12 -1 22 4 22 9 0 6 -1 10 -2 9 -2 0
-12 -4 -23 -9z"/>
<path d="M2318 3213 c6 -2 18 -2 25 0 6 3 1 5 -13 5 -14 0 -19 -2 -12 -5z"/>
<path d="M2458 3213 c7 -3 16 -2 19 1 4 3 -2 6 -13 5 -11 0 -14 -3 -6 -6z"/>
<path d="M3095 3200 c9 -30 13 -35 21 -27 3 3 -2 16 -11 29 l-17 23 7 -25z"/>
<path d="M1800 3201 c0 -5 7 -14 15 -21 16 -14 18 -10 9 14 -6 17 -24 22 -24
7z"/>
<path d="M3147 3203 c-4 -3 -7 -13 -7 -21 0 -12 3 -12 15 -2 8 7 15 16 15 21
0 11 -14 12 -23 2z"/>
<path d="M2191 3195 c0 -18 28 -61 29 -44 0 8 -7 24 -15 35 -8 10 -14 15 -14
9z"/>
<path d="M2995 3180 c-3 -5 -1 -10 4 -10 6 0 11 5 11 10 0 6 -2 10 -4 10 -3 0
-8 -4 -11 -10z"/>
<path d="M2725 3160 c-3 -5 -1 -10 4 -10 6 0 11 5 11 10 0 6 -2 10 -4 10 -3 0
-8 -4 -11 -10z"/>
<path d="M3026 3153 c-6 -14 -5 -15 5 -6 7 7 10 15 7 18 -3 3 -9 -2 -12 -12z"/>
<path d="M1851 3144 c0 -11 3 -14 6 -6 3 7 2 16 -1 19 -3 4 -6 -2 -5 -13z"/>
<path d="M3105 3140 c4 -11 2 -20 -4 -20 -6 0 -10 -10 -10 -22 1 -13 -2 -31
-6 -40 -4 -11 -3 -18 4 -18 6 0 15 10 20 23 12 32 12 97 0 97 -6 0 -8 -9 -4
-20z"/>
<path d="M2340 3143 c0 -6 8 -17 18 -24 16 -13 16 -13 2 6 -8 11 -16 22 -17
24 -2 2 -3 0 -3 -6z"/>
<path d="M2180 3116 c0 -14 5 -26 10 -26 6 0 10 9 10 19 0 11 -4 23 -10 26 -6
4 -10 -5 -10 -19z"/>
<path d="M2950 3134 c0 -10 28 -33 33 -27 3 3 0 12 -8 19 -14 15 -25 18 -25 8z"/>
<path d="M2034 3105 c8 -8 18 -15 22 -15 3 0 1 7 -6 15 -7 8 -17 15 -22 15 -5
0 -3 -7 6 -15z"/>
<path d="M2230 3116 c0 -2 7 -9 15 -16 13 -11 14 -10 9 4 -5 14 -24 23 -24 12z"/>
<path d="M2430 3111 c0 -6 4 -13 10 -16 6 -3 7 1 4 9 -7 18 -14 21 -14 7z"/>
<path d="M2766 3111 c-4 -7 -5 -15 -2 -18 9 -9 19 4 14 18 -4 11 -6 11 -12 0z"/>
<path d="M2870 3072 c-13 -20 -28 -43 -33 -49 -5 -7 -6 -13 -1 -13 10 1 68 89
62 95 -2 2 -14 -13 -28 -33z"/>
<path d="M1910 3085 c0 -8 7 -15 16 -15 14 0 14 3 4 15 -7 8 -14 15 -16 15 -2
0 -4 -7 -4 -15z"/>
<path d="M2335 3090 c3 -5 8 -10 11 -10 2 0 4 5 4 10 0 6 -5 10 -11 10 -5 0
-7 -4 -4 -10z"/>
<path d="M1995 3080 c-4 -6 -3 -16 3 -22 6 -6 12 -6 17 2 4 6 3 16 -3 22 -6 6
-12 6 -17 -2z"/>
<path d="M2672 3069 c-7 -11 -11 -23 -9 -25 7 -7 29 24 25 36 -2 6 -9 1 -16
-11z"/>
<path d="M2950 3071 c0 -5 5 -13 10 -16 6 -3 10 -2 10 4 0 5 -4 13 -10 16 -5
3 -10 2 -10 -4z"/>
<path d="M2625 3060 c-3 -5 -1 -10 4 -10 6 0 11 5 11 10 0 6 -2 10 -4 10 -3 0
-8 -4 -11 -10z"/>
<path d="M2091 3030 c13 -16 24 -28 27 -26 6 6 -29 56 -39 56 -5 0 0 -13 12
-30z"/>
<path d="M2478 3053 c7 -3 16 -2 19 1 4 3 -2 6 -13 5 -11 0 -14 -3 -6 -6z"/>
<path d="M2742 3040 c7 -10 14 -18 15 -16 6 6 -9 36 -18 36 -5 0 -4 -9 3 -20z"/>
<path d="M1910 3041 c0 -5 5 -13 10 -16 6 -3 10 -2 10 4 0 5 -4 13 -10 16 -5
3 -10 2 -10 -4z"/>
<path d="M2145 3039 c-4 -6 -5 -12 -2 -15 2 -3 7 2 10 11 7 17 1 20 -8 4z"/>
<path d="M2195 3040 c-3 -5 -1 -10 4 -10 6 0 11 5 11 10 0 6 -2 10 -4 10 -3 0
-8 -4 -11 -10z"/>
<path d="M2225 3030 c3 -5 8 -10 11 -10 2 0 4 5 4 10 0 6 -5 10 -11 10 -5 0
-7 -4 -4 -10z"/>
<path d="M2065 3020 c3 -5 8 -10 11 -10 2 0 4 5 4 10 0 6 -5 10 -11 10 -5 0
-7 -4 -4 -10z"/>
<path d="M2890 3020 c-9 -6 -10 -10 -3 -10 6 0 15 5 18 10 8 12 4 12 -15 0z"/>
<path d="M1945 3010 c-3 -5 -1 -10 4 -10 6 0 11 5 11 10 0 6 -2 10 -4 10 -3 0
-8 -4 -11 -10z"/>
<path d="M2475 2980 c-3 -5 1 -10 10 -10 9 0 13 5 10 10 -3 6 -8 10 -10 10 -2
0 -7 -4 -10 -10z"/>
<path d="M2525 2940 c-14 -27 -22 -50 -17 -50 4 0 16 18 26 40 10 22 22 40 27
40 5 0 9 5 9 10 0 25 -22 6 -45 -40z"/>
<path d="M2585 2980 c-3 -5 -1 -10 4 -10 6 0 11 5 11 10 0 6 -2 10 -4 10 -3 0
-8 -4 -11 -10z"/>
<path d="M2737 2979 c8 -8 16 -8 30 0 16 9 14 10 -11 11 -22 0 -27 -3 -19 -11z"/>
<path d="M2905 2980 c3 -5 31 -10 61 -10 30 0 54 5 54 10 0 6 -27 10 -61 10
-37 0 -58 -4 -54 -10z"/>
<path d="M1939 2938 c20 -48 47 -97 76 -143 23 -37 101 -115 114 -115 6 0 20
-10 33 -23 31 -30 160 -84 223 -92 50 -6 50 -6 19 9 -18 8 -38 13 -45 13 -8
-1 -14 2 -14 8 0 5 11 8 24 6 16 -2 21 1 16 9 -6 9 -2 9 14 1 23 -13 27 -8 11
12 -6 7 -24 30 -40 51 -30 39 -32 39 -90 37 -72 -3 -101 5 -93 25 3 7 0 14 -6
14 -6 0 -11 5 -11 10 0 5 4 9 9 7 5 -1 21 15 35 36 l25 37 -83 0 c-70 0 -86 3
-101 20 -10 11 -24 20 -31 20 -8 0 -11 6 -8 15 4 9 0 15 -9 15 -10 0 -14 -8
-12 -25 2 -20 0 -23 -11 -14 -8 6 -14 22 -14 34 0 13 -6 26 -12 29 -7 3 -3 3
10 0 16 -4 22 -1 22 11 0 9 -4 14 -9 11 -5 -4 -17 -3 -28 1 -10 5 25 10 87 14
l105 5 -112 2 -112 2 18 -42z m111 -92 c0 -3 -4 -8 -10 -11 -5 -3 -10 -1 -10
4 0 6 5 11 10 11 6 0 10 -2 10 -4z m160 -27 c0 -5 -20 -9 -44 -9 -24 0 -46 -5
-48 -11 -3 -9 -11 -8 -28 1 l-25 14 25 6 c39 9 120 9 120 -1z m-143 -34 c9
-25 -4 -29 -17 -6 -7 15 -7 21 0 21 6 0 13 -7 17 -15z m283 -105 c0 -4 -12
-16 -26 -26 -14 -10 -31 -24 -38 -30 -7 -7 -20 -8 -34 -3 -28 10 -20 29 12 29
12 0 31 7 42 16 16 13 16 15 2 10 -10 -3 -20 -1 -23 4 -3 5 5 10 17 12 27 4
48 -1 48 -12z m-110 0 c-20 -13 -40 -13 -40 0 0 6 12 10 28 10 21 0 24 -2 12
-10z m130 -30 c0 -5 -4 -10 -10 -10 -5 0 -10 5 -10 10 0 6 5 10 10 10 6 0 10
-4 10 -10z"/>
<path d="M2178 2973 c7 -3 16 -2 19 1 4 3 -2 6 -13 5 -11 0 -14 -3 -6 -6z"/>
<path d="M2233 2973 c15 -2 37 -2 50 0 12 2 0 4 -28 4 -27 0 -38 -2 -22 -4z"/>
<path d="M2838 2973 c12 -2 30 -2 40 0 9 3 -1 5 -23 4 -22 0 -30 -2 -17 -4z"/>
<path d="M2606 2946 c-9 -14 -23 -37 -31 -51 -8 -13 -15 -27 -15 -30 0 -11 21
0 22 10 1 6 12 27 25 48 14 22 22 41 20 44 -3 3 -13 -7 -21 -21z"/>
<path d="M2006 2952 c-13 -13 -4 -19 20 -14 25 4 26 3 21 -21 -5 -18 -2 -27
10 -31 9 -4 16 -5 17 -4 1 2 9 17 18 33 16 29 16 31 0 32 -9 0 -31 3 -49 6
-17 3 -34 3 -37 -1z"/>
<path d="M2170 2932 c12 -18 19 -40 16 -48 -3 -9 -2 -12 5 -9 5 4 16 1 24 -5
8 -7 15 -10 15 -6 0 6 -9 17 -60 76 l-22 25 22 -33z"/>
<path d="M2870 2937 c0 -11 -4 -15 -12 -11 -7 4 -8 3 -4 -4 4 -7 13 -12 21
-12 8 0 18 -7 22 -15 6 -10 13 -11 23 -5 12 8 12 12 2 18 -21 14 13 35 48 30
17 -3 35 1 41 8 8 10 -6 12 -65 11 -66 -2 -76 -4 -76 -20z"/>
<path d="M2261 2924 c0 -11 3 -14 6 -6 3 7 2 16 -1 19 -3 4 -6 -2 -5 -13z"/>
<path d="M2412 2933 c23 -48 32 -63 38 -63 4 0 0 16 -8 35 -9 19 -20 35 -25
35 -5 0 -7 -3 -5 -7z"/>
<path d="M2670 2936 c0 -2 9 -6 20 -9 11 -3 20 -1 20 4 0 5 -9 9 -20 9 -11 0
-20 -2 -20 -4z"/>
<path d="M2810 2931 c0 -5 5 -13 10 -16 6 -3 10 -2 10 4 0 5 -4 13 -10 16 -5
3 -10 2 -10 -4z"/>
<path d="M2125 2919 c-11 -17 1 -21 15 -4 8 9 8 15 2 15 -6 0 -14 -5 -17 -11z"/>
<path d="M2463 2910 c6 -8 12 -16 12 -17 0 -1 6 6 12 16 10 16 9 19 -12 17
-19 -1 -21 -4 -12 -16z"/>
<path d="M2652 2900 c5 -17 14 -33 19 -36 12 -7 11 -2 -7 34 -20 40 -26 41
-12 2z"/>
<path d="M2930 2920 c0 -5 5 -10 10 -10 6 0 10 5 10 10 0 6 -4 10 -10 10 -5 0
-10 -4 -10 -10z"/>
<path d="M2286 2896 c-19 -29 -20 -36 -6 -36 11 0 34 50 27 57 -3 2 -12 -8
-21 -21z"/>
<path d="M2350 2911 c0 -5 5 -13 10 -16 6 -3 10 -2 10 4 0 5 -4 13 -10 16 -5
3 -10 2 -10 -4z"/>
<path d="M2954 2898 c-4 -7 -3 -8 4 -4 14 8 15 -3 3 -23 -5 -8 -11 -9 -15 -3
-4 7 -18 5 -39 -6 -19 -10 -64 -18 -116 -20 -46 -2 -79 -7 -74 -11 6 -3 18
-19 27 -36 16 -27 16 -19 0 20 -5 12 5 15 56 15 38 0 59 -4 55 -10 -3 -5 -24
-10 -46 -10 -35 0 -39 -3 -39 -25 0 -16 6 -25 16 -25 8 0 12 -5 9 -10 -4 -6
-11 -8 -16 -5 -5 4 -9 -1 -9 -9 0 -13 -14 -16 -67 -17 -38 -1 -74 -1 -80 0 -7
1 -13 -3 -13 -8 0 -6 18 -14 40 -17 22 -4 37 -10 35 -14 -3 -5 -15 -6 -28 -3
-21 4 -22 4 -3 -11 11 -9 30 -16 42 -16 28 0 40 -16 18 -24 -26 -10 -33 -7
-64 24 -17 17 -35 28 -40 25 -6 -3 -10 0 -10 7 0 27 -32 -20 -34 -50 -2 -30
-1 -31 36 -28 36 4 52 -7 26 -17 -8 -4 -7 -6 3 -6 23 -1 135 55 184 92 48 36
73 64 85 95 5 12 15 22 23 22 14 0 57 80 57 105 0 18 -16 20 -26 3z m-54 -78
c0 -6 -12 -16 -27 -23 -16 -6 -31 -16 -35 -22 -5 -6 -8 -3 -8 8 0 15 11 22 33
18 4 0 7 6 7 14 0 8 7 15 15 15 8 0 15 -5 15 -10z m-30 -70 c0 -5 -10 -15 -22
-21 -23 -12 -23 -12 -4 10 21 23 26 26 26 11z m-100 -70 c0 -5 -4 -10 -10 -10
-5 0 -10 5 -10 10 0 6 5 10 10 10 6 0 10 -4 10 -10z m-150 -30 c0 -5 -4 -10
-10 -10 -5 0 -10 5 -10 10 0 6 5 10 10 10 6 0 10 -4 10 -10z"/>
<path d="M2620 2887 c0 -19 16 -31 24 -18 3 5 -1 14 -9 21 -12 10 -15 10 -15
-3z"/>
<path d="M2326 2881 c-4 -7 -5 -15 -2 -18 9 -9 19 4 14 18 -4 11 -6 11 -12 0z"/>
<path d="M2730 2880 c-8 -5 -12 -11 -9 -14 2 -3 11 -1 19 4 8 5 12 11 9 14 -2
3 -11 1 -19 -4z"/>
<path d="M2130 2870 c0 -5 7 -10 16 -10 8 0 12 5 9 10 -3 6 -10 10 -16 10 -5
0 -9 -4 -9 -10z"/>
<path d="M2375 2870 c3 -5 8 -10 11 -10 2 0 4 5 4 10 0 6 -5 10 -11 10 -5 0
-7 -4 -4 -10z"/>
<path d="M2410 2870 c0 -5 5 -10 10 -10 6 0 10 5 10 10 0 6 -4 10 -10 10 -5 0
-10 -4 -10 -10z"/>
<path d="M2533 2815 c-29 -48 -43 -85 -32 -85 5 0 12 8 15 18 18 54 39 82 64
82 36 0 52 -13 44 -36 -4 -12 4 -8 25 14 17 18 31 34 31 35 0 1 -29 2 -64 2
-61 0 -66 -2 -83 -30z"/>
<path d="M2296 2812 c30 -28 57 -32 47 -6 -3 8 1 14 10 14 9 0 22 3 31 6 10 4
16 1 16 -9 0 -10 -7 -13 -20 -10 -11 3 -20 1 -20 -5 0 -6 -7 -18 -16 -27 -20
-19 -10 -32 26 -35 46 -4 60 0 54 14 -3 8 0 17 5 21 8 4 4 16 -9 36 -20 27
-26 29 -87 29 l-66 0 29 -28z m107 -42 c-13 -14 -19 -16 -25 -7 -4 7 -1 15 10
19 29 11 32 9 15 -12z"/>
<path d="M2430 2825 c7 -9 16 -12 19 -8 4 4 10 11 15 16 5 4 -3 7 -19 7 -24 0
-26 -2 -15 -15z"/>
<path d="M2505 2830 c4 -6 11 -8 16 -5 14 9 11 15 -7 15 -8 0 -12 -5 -9 -10z"/>
<path d="M2231 2789 c-13 -22 -21 -45 -18 -52 2 -6 11 3 21 21 21 41 30 41 22
1 -5 -29 -4 -31 17 -25 12 3 28 6 36 6 10 0 9 6 -4 28 -10 15 -26 34 -35 44
-16 15 -19 14 -39 -23z"/>
<path d="M2660 2789 c-30 -42 -31 -44 -11 -47 39 -6 61 2 52 17 -8 13 -12 13
-27 0 -16 -13 -16 -12 -6 8 19 35 29 35 44 3 19 -44 31 -37 13 8 -24 57 -31
58 -65 11z"/>
<path d="M2577 2809 c-9 -5 -24 -23 -32 -39 -15 -30 -15 -30 14 -30 16 0 36 3
45 6 17 6 22 34 7 34 -5 0 -7 9 -4 20 6 22 -3 25 -30 9z m13 -39 c0 -5 -4 -10
-10 -10 -5 0 -10 5 -10 10 0 6 5 10 10 10 6 0 10 -4 10 -10z"/>
<path d="M2440 2751 c0 -5 5 -13 10 -16 6 -3 10 -2 10 4 0 5 -4 13 -10 16 -5
3 -10 2 -10 -4z"/>
<path d="M2447 2712 c-66 -2 -77 -5 -67 -17 6 -8 18 -11 27 -8 11 5 14 1 10
-13 -4 -13 6 -32 30 -59 19 -22 30 -30 24 -17 -10 19 -9 22 6 23 11 0 13 3 6
6 -18 7 -16 33 2 33 8 0 15 -9 15 -20 0 -31 15 -24 44 20 14 22 31 40 37 40 5
0 8 4 4 10 -3 5 -18 8 -33 7 -15 -1 -62 -3 -105 -5z m38 -32 c-3 -5 -11 -10
-16 -10 -6 0 -7 5 -4 10 3 6 11 10 16 10 6 0 7 -4 4 -10z"/>
<path d="M3282 2625 c-37 -40 -37 -41 -18 -48 10 -4 13 -1 10 7 -3 8 3 20 13
27 25 20 47 49 36 49 -5 0 -24 -16 -41 -35z"/>
<path d="M2523 2598 c-19 -24 -24 -38 -15 -38 5 0 14 11 20 25 13 27 10 32 -5
13z"/>
<path d="M2436 2575 c4 -8 11 -15 16 -15 6 0 5 6 -2 15 -7 8 -14 15 -16 15 -2
0 -1 -7 2 -15z"/>
<path d="M2558 2583 c-31 -5 -39 -23 -10 -23 28 0 62 12 62 21 0 9 -4 9 -52 2z"/>
<path d="M2717 2563 c-12 -11 -8 -23 8 -23 8 0 15 7 15 15 0 16 -12 20 -23 8z"/>
<path d="M2368 2528 c0 -7 -2 -17 -2 -23 -1 -5 -5 -16 -10 -23 -9 -15 -11 -14
34 -30 24 -8 37 -9 45 -1 7 7 4 8 -10 3 -11 -4 -17 -4 -13 0 3 4 0 19 -8 34
-12 24 -12 27 1 30 25 6 17 22 -10 22 -14 0 -26 -6 -27 -12z"/>
<path d="M2575 2500 c4 -11 2 -20 -4 -20 -6 0 -11 7 -11 15 0 8 -4 15 -10 15
-14 0 -12 -23 3 -44 10 -14 17 -15 41 -6 21 8 26 14 18 22 -6 6 -8 17 -5 24 3
9 -2 14 -17 14 -17 0 -20 -4 -15 -20z"/>
<path d="M2410 2495 c0 -8 5 -15 10 -15 6 0 10 7 10 15 0 8 -4 15 -10 15 -5 0
-10 -7 -10 -15z"/>
<path d="M2090 2490 c0 -5 5 -10 10 -10 6 0 10 5 10 10 0 6 -4 10 -10 10 -5 0
-10 -4 -10 -10z"/>
<path d="M3235 2490 c-16 -7 -17 -9 -3 -9 9 -1 20 4 23 9 7 11 7 11 -20 0z"/>
<path d="M1728 2483 c7 -3 16 -2 19 1 4 3 -2 6 -13 5 -11 0 -14 -3 -6 -6z"/>
<path d="M2243 2483 c-10 -3 -10 -10 -2 -25 12 -22 21 -18 26 12 3 20 -2 23
-24 13z"/>
<path d="M2480 2479 c0 -9 -9 -24 -20 -34 -11 -10 -20 -24 -20 -32 0 -7 -7
-16 -15 -19 -8 -4 -15 -14 -15 -23 0 -24 -30 -62 -42 -55 -8 5 -9 1 -5 -10 11
-28 -10 -58 -36 -50 -19 6 -20 5 -9 -8 10 -13 10 -19 -3 -31 -8 -9 -15 -22
-15 -30 0 -8 -7 -20 -16 -28 -25 -20 -43 -64 -37 -87 3 -15 15 -23 37 -26 61
-10 272 -14 321 -7 l50 7 -77 8 c-43 5 -83 6 -90 4 -24 -9 -160 11 -184 27
l-24 15 25 40 c14 22 25 44 25 49 0 6 6 14 14 18 7 4 21 24 31 43 10 19 21 37
24 40 15 12 78 96 84 112 4 11 12 15 22 12 9 -4 14 -13 11 -20 -3 -8 0 -14 7
-14 12 0 57 -52 57 -66 0 -3 9 -18 19 -33 11 -15 23 -39 26 -53 7 -28 40 -68
56 -68 5 0 7 11 3 24 -3 13 -1 27 5 30 16 10 13 26 -5 26 -8 0 -12 -4 -9 -10
3 -5 1 -10 -5 -10 -16 0 -8 21 13 34 12 8 22 7 37 -1 12 -8 21 -9 25 -3 3 6
11 10 16 10 6 0 7 -4 4 -10 -3 -5 -1 -10 4 -10 15 0 14 37 -1 43 -8 4 -9 6 -2
6 6 1 17 -5 24 -13 6 -8 18 -12 27 -9 9 4 11 8 4 12 -16 10 -2 49 20 56 20 7
27 35 8 35 -8 0 -9 4 0 13 13 16 5 28 -15 20 -10 -4 -11 -10 -4 -24 8 -14 6
-21 -12 -30 -16 -9 -23 -9 -26 0 -6 19 -22 12 -22 -9 0 -11 -6 -20 -13 -20 -7
0 -28 -13 -47 -30 -19 -16 -42 -29 -51 -30 -18 0 -34 44 -23 62 4 7 3 8 -4 4
-7 -4 -16 3 -21 17 -6 14 -14 28 -19 31 -6 3 -24 31 -42 63 -24 42 -34 53 -41
42 -8 -12 -10 -12 -19 1 -8 13 -10 13 -10 -1z m330 -169 c0 -5 -7 -10 -16 -10
-8 0 -12 5 -9 10 3 6 10 10 16 10 5 0 9 -4 9 -10z"/>
<path d="M2445 2470 c3 -5 8 -10 11 -10 2 0 4 5 4 10 0 6 -5 10 -11 10 -5 0
-7 -4 -4 -10z"/>
<path d="M2710 2465 c0 -8 4 -15 9 -15 5 0 11 7 15 15 3 9 0 15 -9 15 -8 0
-15 -7 -15 -15z"/>
<path d="M2048 2441 c-21 -21 -22 -33 -7 -48 20 -20 61 6 57 36 -4 31 -27 37
-50 12z m29 -27 c-3 -3 -12 -4 -19 -1 -8 3 -5 6 6 6 11 1 17 -2 13 -5z"/>
<path d="M2788 2453 c7 -3 16 -2 19 1 4 3 -2 6 -13 5 -11 0 -14 -3 -6 -6z"/>
<path d="M2360 2440 c0 -5 5 -10 10 -10 6 0 10 5 10 10 0 6 -4 10 -10 10 -5 0
-10 -4 -10 -10z"/>
<path d="M2595 2440 c3 -5 8 -10 11 -10 2 0 4 5 4 10 0 6 -5 10 -11 10 -5 0
-7 -4 -4 -10z"/>
<path d="M2830 2439 c0 -5 5 -7 10 -4 6 3 10 8 10 11 0 2 -4 4 -10 4 -5 0 -10
-5 -10 -11z"/>
<path d="M2222 2418 c2 -6 10 -14 16 -16 7 -2 10 2 6 12 -7 18 -28 22 -22 4z"/>
<path d="M2770 2415 c-10 -12 -10 -15 3 -15 8 0 17 7 21 15 3 8 2 15 -3 15 -5
0 -14 -7 -21 -15z"/>
<path d="M2180 2412 c0 -5 7 -13 16 -16 10 -4 14 -1 12 6 -5 15 -28 23 -28 10z"/>
<path d="M2274 2409 c-3 -5 5 -19 17 -30 29 -25 38 -8 10 20 -12 12 -23 16
-27 10z"/>
<path d="M2365 2409 c-11 -17 -2 -18 19 -3 17 12 17 14 4 14 -9 0 -20 -5 -23
-11z"/>
<path d="M2586 2406 c21 -15 30 -14 19 3 -3 6 -14 11 -23 11 -13 0 -13 -2 4
-14z"/>
<path d="M2682 2404 c2 -11 -2 -18 -9 -16 -15 2 -16 -7 -4 -26 6 -10 12 -7 24
11 15 23 15 26 1 38 -13 11 -15 10 -12 -7z"/>
<path d="M2725 2410 c-3 -5 -2 -10 4 -10 5 0 13 5 16 10 3 6 2 10 -4 10 -5 0
-13 -4 -16 -10z"/>
<path d="M2119 2386 c6 -7 9 -20 6 -27 -3 -8 4 -20 15 -26 18 -12 19 -11 10
12 -5 14 -7 32 -4 40 4 11 0 15 -16 15 -18 0 -20 -3 -11 -14z"/>
<path d="M2235 2360 c3 -5 11 -10 16 -10 6 0 7 5 4 10 -3 6 -11 10 -16 10 -6
0 -7 -4 -4 -10z"/>
<path d="M2720 2359 c0 -5 5 -7 10 -4 6 3 10 8 10 11 0 2 -4 4 -10 4 -5 0 -10
-5 -10 -11z"/>
<path d="M2875 2360 c3 -5 8 -10 11 -10 2 0 4 5 4 10 0 6 -5 10 -11 10 -5 0
-7 -4 -4 -10z"/>
<path d="M2175 2349 c-9 -14 24 -49 46 -49 10 0 20 -8 24 -19 3 -11 15 -18 30
-18 45 0 26 21 -52 56 -13 6 -23 17 -23 26 0 17 -16 20 -25 4z"/>
<path d="M2260 2331 c0 -5 5 -13 10 -16 6 -3 10 -2 10 4 0 5 -4 13 -10 16 -5
3 -10 2 -10 -4z"/>
<path d="M2696 2331 c-4 -7 -5 -15 -2 -18 9 -9 19 4 14 18 -4 11 -6 11 -12 0z"/>
<path d="M2450 2290 c-14 -11 -20 -20 -13 -20 6 0 15 5 19 11 4 7 21 9 45 5
32 -5 37 -3 33 9 -8 21 -54 18 -84 -5z"/>
<path d="M2215 2270 c3 -5 8 -10 11 -10 2 0 4 5 4 10 0 6 -5 10 -11 10 -5 0
-7 -4 -4 -10z"/>
<path d="M2423 2238 c-26 -12 -38 -38 -19 -38 8 0 17 -8 21 -17 6 -16 9 -14
21 10 20 36 61 38 70 2 4 -15 1 -32 -6 -40 -14 -16 -56 -20 -64 -6 -3 5 -15
11 -26 14 -17 4 -18 2 -10 -14 6 -10 19 -23 30 -29 27 -15 96 -1 117 23 16 18
16 20 2 14 -13 -4 -18 2 -21 24 -4 28 5 39 17 19 3 -5 11 -10 17 -10 19 0 -16
33 -49 47 -38 15 -69 16 -100 1z"/>
<path d="M2460 2193 c0 -17 19 -35 29 -29 18 12 12 36 -9 36 -11 0 -20 -3 -20
-7z"/>
<path d="M2690 2189 c0 -5 5 -7 10 -4 6 3 10 8 10 11 0 2 -4 4 -10 4 -5 0 -10
-5 -10 -11z"/>
<path d="M2733 2183 c9 -2 25 -2 35 0 9 3 1 5 -18 5 -19 0 -27 -2 -17 -5z"/>
<path d="M2366 1965 c-9 -26 -7 -32 5 -12 6 10 9 21 6 23 -2 3 -7 -2 -11 -11z"/>
<path d="M2461 1949 c1 -19 5 -45 9 -59 6 -18 7 -9 5 28 -3 58 -16 86 -14 31z"/>
<path d="M2635 1969 c-10 -15 3 -25 16 -12 7 7 7 13 1 17 -6 3 -14 1 -17 -5z"/>
<path d="M2590 1930 c0 -5 5 -10 11 -10 5 0 7 5 4 10 -3 6 -8 10 -11 10 -2 0
-4 -4 -4 -10z"/>
<path d="M2540 1810 c0 -5 5 -10 11 -10 5 0 7 5 4 10 -3 6 -8 10 -11 10 -2 0
-4 -4 -4 -10z"/>
<path d="M2570 1638 c0 -24 11 -48 22 -48 5 0 6 10 3 23 -10 30 -25 46 -25 25z"/>
<path d="M2335 1609 c-10 -15 3 -25 16 -12 7 7 7 13 1 17 -6 3 -14 1 -17 -5z"/>
<path d="M2550 1569 c0 -5 5 -7 10 -4 6 3 10 8 10 11 0 2 -4 4 -10 4 -5 0 -10
-5 -10 -11z"/>
<path d="M2396 1535 c-3 -8 -1 -15 4 -15 6 0 10 7 10 15 0 8 -2 15 -4 15 -2 0
-6 -7 -10 -15z"/>
<path d="M2480 1530 c0 -6 7 -10 15 -10 8 0 15 2 15 4 0 2 -7 6 -15 10 -8 3
-15 1 -15 -4z"/>
<path d="M1621 2184 c0 -11 3 -14 6 -6 3 7 2 16 -1 19 -3 4 -6 -2 -5 -13z"/>
<path d="M2665 1330 c3 -5 8 -10 11 -10 2 0 4 5 4 10 0 6 -5 10 -11 10 -5 0
-7 -4 -4 -10z"/>
<path d="M1456 671 c-4 -7 -5 -15 -2 -18 9 -9 19 4 14 18 -4 11 -6 11 -12 0z"/>
<path d="M3452 704 c15 -15 15 -18 -3 -37 -24 -26 -25 -46 -1 -24 10 10 24 17
30 17 7 0 12 5 12 11 0 21 -21 49 -37 49 -16 0 -16 -1 -1 -16z"/>
<path d="M3425 691 c-3 -5 -1 -12 5 -16 5 -3 10 1 10 9 0 18 -6 21 -15 7z"/>
<path d="M3474 631 c4 -5 2 -21 -4 -35 -9 -23 -7 -26 14 -26 13 0 27 7 30 15
7 19 -14 55 -32 55 -7 0 -11 -4 -8 -9z"/>
<path d="M2588 853 c7 -3 16 -2 19 1 4 3 -2 6 -13 5 -11 0 -14 -3 -6 -6z"/>
<path d="M1525 600 c3 -5 10 -10 16 -10 5 0 9 5 9 10 0 6 -7 10 -16 10 -8 0
-12 -4 -9 -10z"/>
</g>
</svg>
